<svg width="354" height="237" viewBox="0 0 354 237" fill="none" xmlns="http://www.w3.org/2000/svg">
<path d="M176.442 19.8421C182.302 17.3233 189.034 17.9123 194.367 21.4102L201.053 25.7957C205.494 28.7091 210.875 29.831 216.111 28.9355L225.987 27.2464C232.739 26.0915 239.591 28.6612 243.919 33.9718L245.308 35.6766C249.141 40.3806 254.822 43.1964 260.887 43.3988L271.714 43.7602C277.852 43.9651 283.146 48.133 284.786 54.0518C286.354 59.7108 290.887 64.0619 296.605 65.3969L307.249 67.8818C312.474 69.1015 315.725 74.3207 314.516 79.5479C313.275 84.9145 315.936 90.4216 320.911 92.785L327.806 96.0599C332.788 98.4266 334.221 104.845 330.718 109.106C327.088 113.52 327.664 120.028 332.012 123.736L332.759 124.374C337.717 128.602 337.03 136.456 331.413 139.759L330.567 140.256C325.641 143.153 323.944 149.462 326.752 154.44C329.462 159.244 326.936 165.316 321.618 166.782L314.26 168.81C308.95 170.273 305.373 175.235 305.663 180.735C305.946 186.093 301.838 190.668 296.481 190.962L285.568 191.561C279.704 191.883 274.485 195.381 271.958 200.682C269.315 206.226 263.378 209.411 257.297 208.547L246.571 207.023C240.564 206.169 234.48 207.955 229.888 211.922L228.224 213.36C223.04 217.838 215.846 219.179 209.397 216.869L199.964 213.491C194.964 211.7 189.47 211.87 184.59 213.968L177.244 217.126C171.385 219.645 164.652 219.056 159.319 215.558L152.633 211.172C148.192 208.259 142.811 207.137 137.575 208.033L127.699 209.722C120.947 210.877 114.095 208.307 109.768 202.996L108.378 201.292C104.545 196.588 98.8643 193.772 92.7996 193.569L81.9721 193.208C75.8337 193.003 70.5397 188.835 68.8999 182.916C67.3321 177.257 62.7991 172.906 57.0807 171.571L46.4369 169.086C41.2122 167.867 37.9612 162.647 39.17 157.42C40.4111 152.054 37.7505 146.546 32.775 144.183L25.8803 140.908C20.8977 138.542 19.4651 132.123 22.9684 127.862C26.5978 123.448 26.022 116.94 21.674 113.232L20.9268 112.595C15.9692 108.366 16.6563 100.513 22.2728 97.2095L23.1194 96.7117C28.0453 93.8147 29.7424 87.5057 26.9346 82.5284C24.2243 77.724 26.7498 71.6517 32.0677 70.1862L39.4264 68.1582C44.7366 66.6948 48.3131 61.7333 48.0228 56.2327C47.74 50.875 51.8479 46.2997 57.2051 46.0057L68.1187 45.4069C73.982 45.0852 79.2017 41.5873 81.7284 36.2865C84.371 30.7424 90.3084 27.5571 96.389 28.4212L107.115 29.9455C113.123 30.7993 119.206 29.0127 123.798 25.0459L125.462 23.6082C130.646 19.1298 137.84 17.7889 144.289 20.0988L153.722 23.4772C158.723 25.2683 164.216 25.0977 169.096 22.9999L176.442 19.8421Z" fill="#D16155" stroke="#AB7D91" stroke-width="2"/>
<mask id="path-2-outside-1_495_82" maskUnits="userSpaceOnUse" x="110.337" y="48.9798" width="37.0204" height="61.5645" fill="black">
<rect fill="white" x="110.337" y="48.9798" width="37.0204" height="61.5645"/>
<path d="M119.684 104.831L124.093 54.4312L137.386 55.5942L132.977 105.994L119.684 104.831ZM112.552 105.941L113.547 94.5608L140.708 96.937L139.712 108.318L112.552 105.941ZM116.267 63.4795L117.262 52.099L144.423 54.4752L143.427 65.8558L116.267 63.4795Z"/>
</mask>
<path d="M119.684 104.831L124.093 54.4312L137.386 55.5942L132.977 105.994L119.684 104.831ZM112.552 105.941L113.547 94.5608L140.708 96.937L139.712 108.318L112.552 105.941ZM116.267 63.4795L117.262 52.099L144.423 54.4752L143.427 65.8558L116.267 63.4795Z" fill="#CCBA97"/>
<path d="M119.684 104.831L117.691 104.656L117.517 106.649L119.509 106.823L119.684 104.831ZM124.093 54.4312L124.267 52.4388L122.275 52.2645L122.101 54.2569L124.093 54.4312ZM137.386 55.5942L139.379 55.7685L139.553 53.7762L137.561 53.6018L137.386 55.5942ZM132.977 105.994L132.803 107.986L134.795 108.16L134.969 106.168L132.977 105.994ZM112.552 105.941L110.559 105.767L110.385 107.759L112.377 107.934L112.552 105.941ZM113.547 94.5608L113.722 92.5684L111.729 92.3941L111.555 94.3865L113.547 94.5608ZM140.708 96.937L142.7 97.1113L142.874 95.1189L140.882 94.9446L140.708 96.937ZM139.712 108.318L139.538 110.31L141.53 110.484L141.704 108.492L139.712 108.318ZM116.267 63.4795L114.274 63.3052L114.1 65.2976L116.092 65.4719L116.267 63.4795ZM117.262 52.099L117.437 50.1066L115.444 49.9323L115.27 51.9247L117.262 52.099ZM144.423 54.4752L146.415 54.6495L146.589 52.6571L144.597 52.4828L144.423 54.4752ZM143.427 65.8558L143.253 67.8481L145.245 68.0225L145.419 66.0301L143.427 65.8558ZM121.676 105.005L126.086 54.6055L122.101 54.2569L117.691 104.656L121.676 105.005ZM123.919 56.4236L137.212 57.5866L137.561 53.6018L124.267 52.4388L123.919 56.4236ZM135.394 55.4199L130.985 105.819L134.969 106.168L139.379 55.7685L135.394 55.4199ZM133.151 104.001L119.858 102.838L119.509 106.823L132.803 107.986L133.151 104.001ZM114.544 106.116L115.54 94.7351L111.555 94.3865L110.559 105.767L114.544 106.116ZM113.373 96.5532L140.533 98.9294L140.882 94.9446L113.722 92.5684L113.373 96.5532ZM138.715 96.7627L137.72 108.143L141.704 108.492L142.7 97.1113L138.715 96.7627ZM139.886 106.325L112.726 103.949L112.377 107.934L139.538 110.31L139.886 106.325ZM118.259 63.6538L119.255 52.2733L115.27 51.9247L114.274 63.3052L118.259 63.6538ZM117.088 54.0914L144.248 56.4676L144.597 52.4828L117.437 50.1066L117.088 54.0914ZM142.43 54.3009L141.435 65.6814L145.419 66.0301L146.415 54.6495L142.43 54.3009ZM143.601 63.8634L116.441 61.4871L116.092 65.4719L143.253 67.8481L143.601 63.8634Z" fill="#AB7D91" mask="url(#path-2-outside-1_495_82)"/>
<mask id="path-4-outside-2_495_82" maskUnits="userSpaceOnUse" x="63.3628" y="116.719" width="220.831" height="60.8401" fill="black">
<rect fill="white" x="63.3628" y="116.719" width="220.831" height="60.8401"/>
<path d="M89.6691 121.68L99.1051 122.505L93.4054 133.314L88.2502 157.725L73.9687 156.476L70.0321 119.962L79.4681 120.787L81.3636 153.461L89.6691 121.68ZM109.179 123.387L118.615 124.212L108.844 159.527L94.6258 158.283L93.4054 133.314L89.5416 121.669L99.1051 122.505L102.084 155.274L109.179 123.387ZM120.211 160.521L123.351 124.627L150.511 127.003L149.847 134.59L131.422 132.978L130.847 139.545L144.555 140.744L143.93 147.885L130.223 146.685L129.564 154.209L148.691 155.882L148.072 162.959L120.211 160.521ZM161.553 164.138L152.627 163.357L155.767 127.463L164.693 128.243L161.553 164.138ZM178.401 129.443L187.327 130.224L184.186 166.119L175.26 165.338L178.401 129.443ZM182.218 151.17L157.735 149.028L158.326 142.27L182.809 144.412L182.218 151.17ZM197.438 167.92C195.058 167.712 193.213 167.015 191.903 165.83C190.597 164.602 189.734 162.963 189.314 160.914C188.894 158.864 188.804 156.458 189.046 153.695C189.288 150.932 189.795 148.557 190.569 146.568C191.342 144.58 192.479 143.095 193.978 142.113C195.481 141.088 197.423 140.679 199.803 140.888C201.546 141.04 202.926 141.418 203.944 142.021C204.966 142.581 205.746 143.206 206.286 143.896C206.825 144.586 207.178 145.195 207.346 145.723C207.561 146.213 207.668 146.458 207.668 146.458L207.795 146.469L208.219 141.624L217.4 142.427L215.091 168.822L207.312 168.142L206.222 164.449L206.095 164.438C206.137 164.441 206.012 164.645 205.72 165.047C205.428 165.45 204.939 165.9 204.253 166.397C203.609 166.897 202.717 167.311 201.574 167.64C200.474 167.972 199.096 168.065 197.438 167.92ZM201.841 160.917C203.286 161.044 204.352 160.859 205.038 160.362C205.77 159.826 206.262 159.099 206.514 158.178C206.766 157.258 206.934 156.309 207.02 155.332C207.109 154.311 207.108 153.348 207.016 152.44C206.928 151.49 206.568 150.709 205.936 150.097C205.347 149.489 204.329 149.121 202.884 148.995C201.439 148.869 200.35 149.073 199.618 149.609C198.932 150.105 198.465 150.793 198.217 151.67C197.969 152.548 197.801 153.497 197.711 154.517C197.622 155.537 197.622 156.522 197.71 157.472C197.802 158.38 198.14 159.159 198.726 159.81C199.358 160.422 200.396 160.791 201.841 160.917ZM231.641 170.913C229.176 170.697 226.924 170.007 224.884 168.844C222.887 167.684 221.338 166.05 220.238 163.94C219.137 161.831 218.717 159.289 218.978 156.314C219.319 153.388 220.196 150.959 221.607 149.027C223.018 147.095 224.811 145.688 226.987 144.808C229.166 143.885 231.531 143.535 234.081 143.758C237.057 144.018 239.472 144.808 241.327 146.127C243.224 147.449 244.585 149.024 245.41 150.852C246.282 152.642 246.641 154.408 246.489 156.151L238.391 155.442C238.287 154.191 237.857 153.233 237.101 152.567C236.349 151.859 235.23 151.439 233.742 151.309C232.467 151.198 231.405 151.34 230.557 151.737C229.708 152.134 229.036 152.718 228.54 153.488C228.087 154.262 227.812 155.202 227.715 156.307C227.541 158.305 227.848 159.938 228.636 161.206C229.424 162.474 230.818 163.196 232.815 163.37C233.963 163.471 235.032 163.243 236.023 162.687C237.014 162.132 237.679 161.14 238.018 159.714L246.115 160.422C245.951 162.292 245.281 164.076 244.105 165.771C242.971 167.471 241.353 168.829 239.252 169.844C237.153 170.817 234.617 171.173 231.641 170.913ZM257.284 172.514L248.359 171.733L251.499 135.838L260.425 136.619L257.284 172.514ZM264.827 153.129L276.353 174.118L265.833 173.198L257.777 158.809L264.827 153.129ZM257.692 166.382L258.546 156.627L267.771 146.641L278.482 147.578L257.692 166.382Z"/>
</mask>
<path d="M89.6691 121.68L99.1051 122.505L93.4054 133.314L88.2502 157.725L73.9687 156.476L70.0321 119.962L79.4681 120.787L81.3636 153.461L89.6691 121.68ZM109.179 123.387L118.615 124.212L108.844 159.527L94.6258 158.283L93.4054 133.314L89.5416 121.669L99.1051 122.505L102.084 155.274L109.179 123.387ZM120.211 160.521L123.351 124.627L150.511 127.003L149.847 134.59L131.422 132.978L130.847 139.545L144.555 140.744L143.93 147.885L130.223 146.685L129.564 154.209L148.691 155.882L148.072 162.959L120.211 160.521ZM161.553 164.138L152.627 163.357L155.767 127.463L164.693 128.243L161.553 164.138ZM178.401 129.443L187.327 130.224L184.186 166.119L175.26 165.338L178.401 129.443ZM182.218 151.17L157.735 149.028L158.326 142.27L182.809 144.412L182.218 151.17ZM197.438 167.92C195.058 167.712 193.213 167.015 191.903 165.83C190.597 164.602 189.734 162.963 189.314 160.914C188.894 158.864 188.804 156.458 189.046 153.695C189.288 150.932 189.795 148.557 190.569 146.568C191.342 144.58 192.479 143.095 193.978 142.113C195.481 141.088 197.423 140.679 199.803 140.888C201.546 141.04 202.926 141.418 203.944 142.021C204.966 142.581 205.746 143.206 206.286 143.896C206.825 144.586 207.178 145.195 207.346 145.723C207.561 146.213 207.668 146.458 207.668 146.458L207.795 146.469L208.219 141.624L217.4 142.427L215.091 168.822L207.312 168.142L206.222 164.449L206.095 164.438C206.137 164.441 206.012 164.645 205.72 165.047C205.428 165.45 204.939 165.9 204.253 166.397C203.609 166.897 202.717 167.311 201.574 167.64C200.474 167.972 199.096 168.065 197.438 167.92ZM201.841 160.917C203.286 161.044 204.352 160.859 205.038 160.362C205.77 159.826 206.262 159.099 206.514 158.178C206.766 157.258 206.934 156.309 207.02 155.332C207.109 154.311 207.108 153.348 207.016 152.44C206.928 151.49 206.568 150.709 205.936 150.097C205.347 149.489 204.329 149.121 202.884 148.995C201.439 148.869 200.35 149.073 199.618 149.609C198.932 150.105 198.465 150.793 198.217 151.67C197.969 152.548 197.801 153.497 197.711 154.517C197.622 155.537 197.622 156.522 197.71 157.472C197.802 158.38 198.14 159.159 198.726 159.81C199.358 160.422 200.396 160.791 201.841 160.917ZM231.641 170.913C229.176 170.697 226.924 170.007 224.884 168.844C222.887 167.684 221.338 166.05 220.238 163.94C219.137 161.831 218.717 159.289 218.978 156.314C219.319 153.388 220.196 150.959 221.607 149.027C223.018 147.095 224.811 145.688 226.987 144.808C229.166 143.885 231.531 143.535 234.081 143.758C237.057 144.018 239.472 144.808 241.327 146.127C243.224 147.449 244.585 149.024 245.41 150.852C246.282 152.642 246.641 154.408 246.489 156.151L238.391 155.442C238.287 154.191 237.857 153.233 237.101 152.567C236.349 151.859 235.23 151.439 233.742 151.309C232.467 151.198 231.405 151.34 230.557 151.737C229.708 152.134 229.036 152.718 228.54 153.488C228.087 154.262 227.812 155.202 227.715 156.307C227.541 158.305 227.848 159.938 228.636 161.206C229.424 162.474 230.818 163.196 232.815 163.37C233.963 163.471 235.032 163.243 236.023 162.687C237.014 162.132 237.679 161.14 238.018 159.714L246.115 160.422C245.951 162.292 245.281 164.076 244.105 165.771C242.971 167.471 241.353 168.829 239.252 169.844C237.153 170.817 234.617 171.173 231.641 170.913ZM257.284 172.514L248.359 171.733L251.499 135.838L260.425 136.619L257.284 172.514ZM264.827 153.129L276.353 174.118L265.833 173.198L257.777 158.809L264.827 153.129ZM257.692 166.382L258.546 156.627L267.771 146.641L278.482 147.578L257.692 166.382Z" fill="#CCBA97"/>
<path d="M89.6691 121.68L89.8434 119.687L88.1611 119.54L87.7341 121.174L89.6691 121.68ZM99.1051 122.505L100.874 123.438L102.278 120.775L99.2794 120.513L99.1051 122.505ZM93.4054 133.314L91.6363 132.381L91.5062 132.627L91.4485 132.9L93.4054 133.314ZM88.2502 157.725L88.0759 159.718L89.8409 159.872L90.207 158.138L88.2502 157.725ZM73.9687 156.476L71.9802 156.69L72.1565 158.325L73.7944 158.468L73.9687 156.476ZM70.0321 119.962L70.2065 117.969L67.7829 117.757L68.0437 120.176L70.0321 119.962ZM79.4681 120.787L81.4647 120.671L81.3646 118.946L79.6424 118.795L79.4681 120.787ZM81.3636 153.461L79.367 153.577L83.2986 153.966L81.3636 153.461ZM109.179 123.387L109.353 121.394L107.607 121.241L107.226 122.952L109.179 123.387ZM118.615 124.212L120.542 124.745L121.183 122.429L118.789 122.22L118.615 124.212ZM108.844 159.527L108.669 161.519L110.327 161.664L110.771 160.06L108.844 159.527ZM94.6258 158.283L92.6282 158.381L92.7134 160.123L94.4515 160.275L94.6258 158.283ZM93.4054 133.314L95.403 133.216L95.3897 132.943L95.3036 132.684L93.4054 133.314ZM89.5416 121.669L89.7159 119.676L86.6854 119.411L87.6434 122.298L89.5416 121.669ZM99.1051 122.505L101.097 122.324L100.945 120.659L99.2794 120.513L99.1051 122.505ZM102.084 155.274L100.093 155.455L104.037 155.708L102.084 155.274ZM89.4948 123.672L98.9308 124.498L99.2794 120.513L89.8434 119.687L89.4948 123.672ZM97.336 121.572L91.6363 132.381L95.1745 134.247L100.874 123.438L97.336 121.572ZM91.4485 132.9L86.2933 157.312L90.207 158.138L95.3622 133.727L91.4485 132.9ZM88.4245 155.733L74.143 154.483L73.7944 158.468L88.0759 159.718L88.4245 155.733ZM75.9572 156.261L72.0206 119.747L68.0437 120.176L71.9802 156.69L75.9572 156.261ZM69.8578 121.954L79.2938 122.78L79.6424 118.795L70.2065 117.969L69.8578 121.954ZM77.4715 120.903L79.367 153.577L83.3603 153.345L81.4647 120.671L77.4715 120.903ZM83.2986 153.966L91.6042 122.185L87.7341 121.174L79.4286 152.955L83.2986 153.966ZM109.004 125.379L118.44 126.205L118.789 122.22L109.353 121.394L109.004 125.379ZM116.687 123.679L106.916 158.994L110.771 160.06L120.542 124.745L116.687 123.679ZM109.018 157.535L94.8001 156.291L94.4515 160.275L108.669 161.519L109.018 157.535ZM96.6234 158.185L95.403 133.216L91.4078 133.411L92.6282 158.381L96.6234 158.185ZM95.3036 132.684L91.4399 121.039L87.6434 122.298L91.5072 133.943L95.3036 132.684ZM89.3673 123.661L98.9308 124.498L99.2794 120.513L89.7159 119.676L89.3673 123.661ZM97.1133 122.686L100.093 155.455L104.076 155.093L101.097 122.324L97.1133 122.686ZM104.037 155.708L111.131 123.821L107.226 122.952L100.132 154.839L104.037 155.708ZM120.211 160.521L118.218 160.347L118.044 162.339L120.036 162.514L120.211 160.521ZM123.351 124.627L123.525 122.634L121.533 122.46L121.359 124.452L123.351 124.627ZM150.511 127.003L152.504 127.177L152.678 125.185L150.686 125.01L150.511 127.003ZM149.847 134.59L149.673 136.582L151.666 136.756L151.84 134.764L149.847 134.59ZM131.422 132.978L131.596 130.985L129.604 130.811L129.429 132.803L131.422 132.978ZM130.847 139.545L128.855 139.37L128.681 141.363L130.673 141.537L130.847 139.545ZM144.555 140.744L146.547 140.918L146.722 138.926L144.729 138.751L144.555 140.744ZM143.93 147.885L143.756 149.877L145.748 150.051L145.923 148.059L143.93 147.885ZM130.223 146.685L130.397 144.693L128.404 144.519L128.23 146.511L130.223 146.685ZM129.564 154.209L127.572 154.034L127.398 156.027L129.39 156.201L129.564 154.209ZM148.691 155.882L150.684 156.056L150.858 154.064L148.866 153.89L148.691 155.882ZM148.072 162.959L147.898 164.951L149.89 165.126L150.065 163.133L148.072 162.959ZM122.203 160.696L125.343 124.801L121.359 124.452L118.218 160.347L122.203 160.696ZM123.177 126.619L150.337 128.995L150.686 125.01L123.525 122.634L123.177 126.619ZM148.519 126.828L147.855 134.415L151.84 134.764L152.504 127.177L148.519 126.828ZM150.022 132.597L131.596 130.985L131.248 134.97L149.673 136.582L150.022 132.597ZM129.429 132.803L128.855 139.37L132.84 139.719L133.414 133.152L129.429 132.803ZM130.673 141.537L144.381 142.736L144.729 138.751L131.022 137.552L130.673 141.537ZM142.563 140.57L141.938 147.71L145.923 148.059L146.547 140.918L142.563 140.57ZM144.105 145.892L130.397 144.693L130.048 148.678L143.756 149.877L144.105 145.892ZM128.23 146.511L127.572 154.034L131.557 154.383L132.215 146.86L128.23 146.511ZM129.39 156.201L148.517 157.874L148.866 153.89L129.739 152.216L129.39 156.201ZM146.699 155.708L146.08 162.785L150.065 163.133L150.684 156.056L146.699 155.708ZM148.246 160.967L120.385 158.529L120.036 162.514L147.898 164.951L148.246 160.967ZM161.553 164.138L161.378 166.131L163.371 166.305L163.545 164.313L161.553 164.138ZM152.627 163.357L150.634 163.183L150.46 165.176L152.452 165.35L152.627 163.357ZM155.767 127.463L155.941 125.47L153.949 125.296L153.775 127.288L155.767 127.463ZM164.693 128.243L166.685 128.418L166.86 126.425L164.867 126.251L164.693 128.243ZM178.401 129.443L178.575 127.45L176.583 127.276L176.408 129.268L178.401 129.443ZM187.327 130.224L189.319 130.398L189.493 128.406L187.501 128.231L187.327 130.224ZM184.186 166.119L184.012 168.111L186.004 168.285L186.179 166.293L184.186 166.119ZM175.26 165.338L173.268 165.163L173.094 167.156L175.086 167.33L175.26 165.338ZM182.218 151.17L182.043 153.162L184.036 153.337L184.21 151.344L182.218 151.17ZM157.735 149.028L155.743 148.854L155.568 150.846L157.561 151.021L157.735 149.028ZM158.326 142.27L158.501 140.278L156.508 140.103L156.334 142.096L158.326 142.27ZM182.809 144.412L184.801 144.586L184.976 142.594L182.983 142.42L182.809 144.412ZM161.727 162.146L152.801 161.365L152.452 165.35L161.378 166.131L161.727 162.146ZM154.619 163.532L157.76 127.637L153.775 127.288L150.634 163.183L154.619 163.532ZM155.593 129.455L164.519 130.236L164.867 126.251L155.941 125.47L155.593 129.455ZM162.701 128.069L159.56 163.964L163.545 164.313L166.685 128.418L162.701 128.069ZM178.226 131.435L187.152 132.216L187.501 128.231L178.575 127.45L178.226 131.435ZM185.334 130.049L182.194 165.944L186.179 166.293L189.319 130.398L185.334 130.049ZM184.361 164.126L175.435 163.345L175.086 167.33L184.012 168.111L184.361 164.126ZM177.253 165.512L180.393 129.617L176.408 129.268L173.268 165.163L177.253 165.512ZM182.392 149.178L157.909 147.036L157.561 151.021L182.043 153.162L182.392 149.178ZM159.727 149.202L160.319 142.444L156.334 142.096L155.743 148.854L159.727 149.202ZM158.152 144.262L182.635 146.404L182.983 142.42L158.501 140.278L158.152 144.262ZM180.816 144.238L180.225 150.996L184.21 151.344L184.801 144.586L180.816 144.238ZM191.903 165.83L190.533 167.287L190.547 167.3L190.561 167.313L191.903 165.83ZM189.314 160.914L191.273 160.512L189.314 160.914ZM190.569 146.568L192.433 147.294L190.569 146.568ZM193.978 142.113L195.074 143.786L195.09 143.775L195.105 143.765L193.978 142.113ZM203.944 142.021L202.925 143.742L202.953 143.758L202.982 143.774L203.944 142.021ZM206.286 143.896L204.71 145.128L204.71 145.128L206.286 143.896ZM207.346 145.723L205.44 146.329L205.472 146.429L205.514 146.525L207.346 145.723ZM207.668 146.458L205.835 147.259L206.311 148.347L207.493 148.451L207.668 146.458ZM207.795 146.469L207.621 148.462L209.613 148.636L209.787 146.644L207.795 146.469ZM208.219 141.624L208.393 139.632L206.401 139.457L206.227 141.45L208.219 141.624ZM217.4 142.427L219.392 142.601L219.567 140.609L217.574 140.435L217.4 142.427ZM215.091 168.822L214.916 170.815L216.909 170.989L217.083 168.997L215.091 168.822ZM207.312 168.142L205.394 168.708L205.78 170.015L207.138 170.134L207.312 168.142ZM206.222 164.449L208.14 163.882L207.754 162.575L206.396 162.456L206.222 164.449ZM205.72 165.047L207.339 166.222L205.72 165.047ZM204.253 166.397L203.08 164.777L203.052 164.797L203.025 164.818L204.253 166.397ZM201.574 167.64L201.022 165.718L201.009 165.721L200.996 165.725L201.574 167.64ZM205.038 160.362L206.211 161.982L206.219 161.976L205.038 160.362ZM206.514 158.178L204.585 157.65L206.514 158.178ZM207.016 152.44L205.024 152.625L205.025 152.633L205.026 152.642L207.016 152.44ZM205.936 150.097L204.499 151.489L204.521 151.511L204.544 151.534L205.936 150.097ZM199.618 149.609L200.792 151.229L200.799 151.223L199.618 149.609ZM198.217 151.67L196.293 151.126L196.293 151.126L198.217 151.67ZM197.71 157.472L195.718 157.657L195.719 157.666L195.72 157.674L197.71 157.472ZM198.726 159.81L197.239 161.147L197.285 161.198L197.334 161.246L198.726 159.81ZM197.612 165.928C195.515 165.744 194.135 165.152 193.245 164.347L190.561 167.313C192.291 168.879 194.601 169.68 197.264 169.913L197.612 165.928ZM193.273 164.373C192.316 163.473 191.625 162.227 191.273 160.512L187.355 161.315C187.843 163.7 188.879 165.732 190.533 167.287L193.273 164.373ZM191.273 160.512C190.902 158.702 190.808 156.498 191.038 153.869L187.054 153.521C186.8 156.417 186.885 159.026 187.355 161.315L191.273 160.512ZM191.038 153.869C191.268 151.242 191.745 149.061 192.433 147.294L188.705 145.843C187.846 148.052 187.307 150.622 187.054 153.521L191.038 153.869ZM192.433 147.294C193.085 145.618 193.986 144.499 195.074 143.786L192.882 140.44C190.972 141.691 189.6 143.543 188.705 145.843L192.433 147.294ZM195.105 143.765C196.121 143.072 197.563 142.699 199.629 142.88L199.977 138.895C197.283 138.659 194.841 139.103 192.851 140.46L195.105 143.765ZM199.629 142.88C201.204 143.018 202.258 143.347 202.925 143.742L204.963 140.3C203.594 139.489 201.887 139.062 199.977 138.895L199.629 142.88ZM202.982 143.774C203.841 144.245 204.383 144.71 204.71 145.128L207.861 142.664C207.109 141.703 206.091 140.917 204.906 140.267L202.982 143.774ZM204.71 145.128C205.178 145.726 205.374 146.12 205.44 146.329L209.253 145.118C208.983 144.27 208.472 143.445 207.861 142.664L204.71 145.128ZM205.514 146.525C205.549 146.606 205.632 146.795 205.654 146.846C205.663 146.865 205.654 146.844 205.662 146.863C205.664 146.868 205.667 146.875 205.669 146.88C205.677 146.898 205.675 146.894 205.683 146.912C205.698 146.946 205.695 146.94 205.71 146.972C205.721 146.999 205.746 147.056 205.755 147.076C205.784 147.144 205.799 147.176 205.815 147.213C205.825 147.237 205.823 147.232 205.83 147.248C205.83 147.249 205.831 147.25 205.831 147.251C205.831 147.251 205.831 147.251 205.832 147.252C205.832 147.252 205.832 147.252 205.832 147.253C205.832 147.253 205.832 147.253 205.832 147.253C205.832 147.253 205.832 147.253 205.832 147.253C205.832 147.253 205.833 147.254 205.833 147.254C205.833 147.254 205.833 147.254 205.833 147.254C205.833 147.254 205.833 147.254 205.833 147.254C205.833 147.255 205.833 147.254 205.833 147.255C205.834 147.256 205.833 147.255 205.834 147.256C205.834 147.257 205.834 147.258 205.835 147.259C205.835 147.259 205.835 147.259 205.835 147.259C205.835 147.259 205.835 147.259 205.835 147.259C205.835 147.259 205.835 147.259 205.835 147.259C205.835 147.259 205.835 147.259 205.835 147.259C205.835 147.259 205.835 147.259 207.668 146.458C209.5 145.657 209.5 145.657 209.5 145.657C209.5 145.657 209.5 145.657 209.5 145.657C209.5 145.657 209.5 145.657 209.5 145.657C209.5 145.657 209.5 145.657 209.5 145.657C209.5 145.657 209.5 145.657 209.5 145.657C209.5 145.657 209.5 145.657 209.5 145.657C209.5 145.657 209.5 145.657 209.5 145.657C209.5 145.657 209.5 145.657 209.5 145.657C209.5 145.656 209.5 145.658 209.5 145.657C209.5 145.656 209.5 145.656 209.5 145.656C209.5 145.656 209.5 145.656 209.5 145.656C209.5 145.656 209.5 145.656 209.5 145.656C209.499 145.655 209.5 145.656 209.499 145.656C209.498 145.652 209.501 145.658 209.499 145.654C209.496 145.647 209.501 145.659 209.497 145.651C209.495 145.645 209.498 145.652 209.495 145.646C209.485 145.623 209.5 145.656 209.489 145.631C209.487 145.627 209.487 145.627 209.485 145.622C209.485 145.622 209.485 145.622 209.485 145.621C209.484 145.621 209.484 145.621 209.484 145.621C209.484 145.621 209.484 145.62 209.484 145.62C209.484 145.62 209.484 145.62 209.484 145.62C209.484 145.619 209.483 145.619 209.483 145.619C209.483 145.619 209.483 145.618 209.483 145.618C209.483 145.618 209.483 145.618 209.483 145.618C209.483 145.617 209.483 145.617 209.483 145.617C209.478 145.606 209.485 145.623 209.48 145.611C209.449 145.54 209.49 145.633 209.455 145.554C209.448 145.538 209.446 145.534 209.439 145.517C209.438 145.516 209.438 145.516 209.438 145.515C209.438 145.515 209.438 145.514 209.438 145.514C209.436 145.51 209.438 145.516 209.436 145.512C209.436 145.511 209.436 145.51 209.435 145.509C209.435 145.509 209.435 145.508 209.435 145.508C209.435 145.507 209.434 145.507 209.434 145.506C209.434 145.506 209.43 145.496 209.43 145.496C209.412 145.455 209.438 145.514 209.42 145.474C209.389 145.402 209.431 145.498 209.399 145.425C209.394 145.414 209.38 145.383 209.375 145.37C209.375 145.37 209.323 145.252 209.319 145.244C209.262 145.113 209.346 145.305 209.288 145.172C209.282 145.158 209.29 145.177 209.284 145.163C209.284 145.162 209.283 145.161 209.283 145.16C209.283 145.16 209.282 145.159 209.282 145.158C209.282 145.157 209.281 145.156 209.281 145.156C209.281 145.155 209.28 145.154 209.28 145.153C209.265 145.119 209.286 145.168 209.271 145.134C209.264 145.117 209.262 145.112 209.254 145.095C209.241 145.063 209.259 145.106 209.245 145.074C209.235 145.052 209.253 145.092 209.243 145.069C209.243 145.068 209.242 145.068 209.242 145.067C209.242 145.066 209.241 145.065 209.241 145.064C209.241 145.063 209.24 145.062 209.24 145.062C209.239 145.061 209.239 145.06 209.239 145.059C209.238 145.058 209.238 145.057 209.238 145.056C209.237 145.055 209.237 145.055 209.236 145.054C209.18 144.924 209.275 145.141 209.218 145.011C209.216 145.007 209.21 144.995 209.208 144.99C209.208 144.989 209.208 144.988 209.207 144.987C209.207 144.986 209.206 144.985 209.206 144.984C209.206 144.983 209.205 144.982 209.205 144.981C209.204 144.981 209.204 144.98 209.204 144.979C209.182 144.929 209.22 145.017 209.199 144.968C209.198 144.967 209.198 144.966 209.198 144.965C209.197 144.964 209.197 144.963 209.196 144.962C209.192 144.953 209.198 144.965 209.194 144.956C209.192 144.951 209.191 144.95 209.189 144.945C209.171 144.905 209.197 144.963 209.179 144.922L205.514 146.525ZM207.493 148.451L207.621 148.462L207.969 144.477L207.842 144.466L207.493 148.451ZM209.787 146.644L210.211 141.798L206.227 141.45L205.803 146.295L209.787 146.644ZM208.045 143.616L217.226 144.42L217.574 140.435L208.393 139.632L208.045 143.616ZM215.408 142.253L213.098 168.648L217.083 168.997L219.392 142.601L215.408 142.253ZM215.265 166.83L207.487 166.149L207.138 170.134L214.916 170.815L215.265 166.83ZM209.231 167.576L208.14 163.882L204.304 165.015L205.394 168.708L209.231 167.576ZM206.396 162.456L206.269 162.445L205.92 166.43L206.048 166.441L206.396 162.456ZM205.92 166.43C205.475 166.391 204.907 166.181 204.503 165.644C204.15 165.175 204.106 164.696 204.103 164.473C204.098 164.063 204.227 163.763 204.237 163.738C204.294 163.594 204.352 163.508 204.329 163.546C204.309 163.579 204.242 163.678 204.101 163.873L207.339 166.222C207.49 166.013 207.632 165.81 207.737 165.64C207.776 165.576 207.875 165.414 207.953 165.217C207.973 165.167 208.108 164.847 208.103 164.424C208.1 164.194 208.054 163.71 207.698 163.237C207.291 162.697 206.72 162.485 206.269 162.445L205.92 166.43ZM204.101 163.873C203.99 164.026 203.697 164.33 203.08 164.777L205.426 168.016C206.181 167.47 206.865 166.874 207.339 166.222L204.101 163.873ZM203.025 164.818C202.653 165.108 202.022 165.43 201.022 165.718L202.127 169.562C203.412 169.193 204.566 168.686 205.481 167.975L203.025 164.818ZM200.996 165.725C200.223 165.959 199.121 166.06 197.612 165.928L197.264 169.913C199.071 170.071 200.726 169.985 202.152 169.554L200.996 165.725ZM201.667 162.91C203.279 163.051 204.94 162.902 206.211 161.982L203.865 158.742C203.764 158.815 203.294 159.037 202.016 158.925L201.667 162.91ZM206.219 161.976C207.336 161.159 208.078 160.038 208.443 158.706L204.585 157.65C204.446 158.159 204.204 158.494 203.857 158.748L206.219 161.976ZM208.443 158.706C208.727 157.667 208.916 156.6 209.012 155.506L205.027 155.157C204.952 156.019 204.804 156.849 204.585 157.65L208.443 158.706ZM209.012 155.506C209.111 154.376 209.112 153.285 209.006 152.239L205.026 152.642C205.104 153.41 205.107 154.247 205.027 155.157L209.012 155.506ZM209.007 152.255C208.879 150.873 208.332 149.634 207.327 148.661L204.544 151.534C204.803 151.784 204.976 152.107 205.024 152.625L209.007 152.255ZM207.372 148.706C206.281 147.578 204.67 147.144 203.059 147.003L202.71 150.987C203.989 151.099 204.413 151.399 204.499 151.489L207.372 148.706ZM203.059 147.003C201.404 146.858 199.736 147.044 198.438 147.995L200.799 151.223C200.965 151.102 201.474 150.879 202.71 150.987L203.059 147.003ZM198.445 147.989C197.366 148.77 196.653 149.851 196.293 151.126L200.142 152.214C200.278 151.734 200.499 151.44 200.792 151.229L198.445 147.989ZM196.293 151.126C196.007 152.139 195.818 153.213 195.719 154.343L199.704 154.691C199.783 153.782 199.932 152.958 200.142 152.214L196.293 151.126ZM195.719 154.343C195.62 155.474 195.618 156.579 195.718 157.657L199.701 157.287C199.625 156.465 199.624 155.601 199.704 154.691L195.719 154.343ZM195.72 157.674C195.853 158.985 196.357 160.167 197.239 161.147L200.213 158.472C199.924 158.151 199.751 157.775 199.7 157.271L195.72 157.674ZM197.334 161.246C198.45 162.328 200.038 162.767 201.667 162.91L202.016 158.925C200.754 158.815 200.265 158.516 200.118 158.373L197.334 161.246ZM224.884 168.844L223.88 170.573L223.886 170.577L223.893 170.581L224.884 168.844ZM220.238 163.94L218.465 164.865L220.238 163.94ZM218.978 156.314L216.991 156.082L216.988 156.11L216.985 156.139L218.978 156.314ZM221.607 149.027L223.222 150.206L223.222 150.206L221.607 149.027ZM226.987 144.808L227.737 146.662L227.752 146.656L227.767 146.649L226.987 144.808ZM241.327 146.127L240.168 147.757L240.175 147.762L240.183 147.767L241.327 146.127ZM245.41 150.852L243.587 151.675L243.599 151.702L243.612 151.728L245.41 150.852ZM246.489 156.151L246.314 158.143L248.307 158.317L248.481 156.325L246.489 156.151ZM238.391 155.442L236.398 155.609L236.539 157.288L238.217 157.435L238.391 155.442ZM237.101 152.567L235.73 154.023L235.754 154.045L235.779 154.067L237.101 152.567ZM230.557 151.737L231.404 153.549L230.557 151.737ZM228.54 153.488L226.858 152.406L226.836 152.441L226.814 152.478L228.54 153.488ZM228.636 161.206L226.938 162.262L228.636 161.206ZM236.023 162.687L237.001 164.432L236.023 162.687ZM238.018 159.714L238.192 157.722L236.471 157.571L236.072 159.252L238.018 159.714ZM246.115 160.422L248.107 160.597L248.282 158.604L246.289 158.43L246.115 160.422ZM244.105 165.771L242.462 164.632L242.451 164.647L242.441 164.662L244.105 165.771ZM239.252 169.844L240.093 171.658L240.107 171.652L240.122 171.645L239.252 169.844ZM231.816 168.92C229.622 168.728 227.651 168.12 225.875 167.107L223.893 170.581C226.197 171.895 228.73 172.666 231.467 172.905L231.816 168.92ZM225.888 167.114C224.229 166.151 222.942 164.8 222.011 163.015L218.465 164.865C219.734 167.299 221.545 169.218 223.88 170.573L225.888 167.114ZM222.011 163.015C221.127 161.321 220.735 159.18 220.97 156.488L216.985 156.139C216.7 159.398 217.148 162.341 218.465 164.865L222.011 163.015ZM220.964 156.545C221.275 153.884 222.056 151.803 223.222 150.206L219.992 147.847C218.335 150.116 217.364 152.892 216.991 156.082L220.964 156.545ZM223.222 150.206C224.418 148.569 225.914 147.399 227.737 146.662L226.237 142.954C223.708 143.977 221.618 145.62 219.992 147.847L223.222 150.206ZM227.767 146.649C229.621 145.864 231.655 145.553 233.907 145.75L234.256 141.766C231.407 141.516 228.712 141.905 226.207 142.966L227.767 146.649ZM233.907 145.75C236.636 145.989 238.68 146.699 240.168 147.757L242.485 144.497C240.263 142.917 237.478 142.048 234.256 141.766L233.907 145.75ZM240.183 147.767C241.83 148.915 242.932 150.224 243.587 151.675L247.233 150.03C246.238 147.825 244.618 145.982 242.47 144.486L240.183 147.767ZM243.612 151.728C244.347 153.237 244.613 154.642 244.496 155.976L248.481 156.325C248.669 154.174 248.216 152.046 247.208 149.977L243.612 151.728ZM246.663 154.158L238.566 153.45L238.217 157.435L246.314 158.143L246.663 154.158ZM240.385 155.275C240.248 153.643 239.656 152.153 238.423 151.066L235.779 154.067C236.057 154.312 236.326 154.739 236.398 155.609L240.385 155.275ZM238.473 151.111C237.275 149.983 235.658 149.469 233.916 149.317L233.568 153.302C234.801 153.41 235.423 153.734 235.73 154.023L238.473 151.111ZM233.916 149.317C232.414 149.185 230.972 149.335 229.709 149.926L231.404 153.549C231.838 153.346 232.52 153.21 233.568 153.302L233.916 149.317ZM229.709 149.926C228.527 150.478 227.563 151.311 226.858 152.406L230.222 154.57C230.509 154.124 230.889 153.79 231.404 153.549L229.709 149.926ZM226.814 152.478C226.18 153.561 225.84 154.801 225.723 156.133L229.708 156.481C229.785 155.603 229.994 154.964 230.266 154.499L226.814 152.478ZM225.723 156.133C225.523 158.415 225.854 160.518 226.938 162.262L230.335 160.15C229.842 159.357 229.558 158.194 229.708 156.481L225.723 156.133ZM226.938 162.262C228.165 164.236 230.249 165.153 232.641 165.363L232.99 161.378C231.386 161.238 230.684 160.712 230.335 160.15L226.938 162.262ZM232.641 165.363C234.183 165.498 235.655 165.187 237.001 164.432L235.045 160.943C234.41 161.299 233.743 161.444 232.99 161.378L232.641 165.363ZM237.001 164.432C238.612 163.528 239.535 161.979 239.964 160.176L236.072 159.252C235.822 160.302 235.416 160.735 235.045 160.943L237.001 164.432ZM237.843 161.706L245.941 162.415L246.289 158.43L238.192 157.722L237.843 161.706ZM244.122 160.248C243.992 161.738 243.46 163.193 242.462 164.632L245.748 166.911C247.103 164.959 247.91 162.847 248.107 160.597L244.122 160.248ZM242.441 164.662C241.532 166.024 240.208 167.161 238.382 168.043L240.122 171.645C242.498 170.497 244.41 168.918 245.769 166.881L242.441 164.662ZM238.41 168.03C236.709 168.818 234.542 169.159 231.816 168.92L231.467 172.905C234.692 173.187 237.598 172.815 240.093 171.658L238.41 168.03ZM257.284 172.514L257.11 174.506L259.103 174.681L259.277 172.688L257.284 172.514ZM248.359 171.733L246.366 171.559L246.192 173.551L248.184 173.725L248.359 171.733ZM251.499 135.838L251.673 133.846L249.681 133.671L249.507 135.664L251.499 135.838ZM260.425 136.619L262.417 136.793L262.592 134.801L260.599 134.627L260.425 136.619ZM264.827 153.129L266.58 152.167L265.431 150.075L263.572 151.572L264.827 153.129ZM276.353 174.118L276.179 176.11L279.908 176.437L278.106 173.155L276.353 174.118ZM265.833 173.197L264.088 174.175L264.605 175.098L265.659 175.19L265.833 173.197ZM257.777 158.809L256.522 157.251L255.206 158.311L256.032 159.786L257.777 158.809ZM257.692 166.382L255.7 166.208L255.256 171.282L259.034 167.865L257.692 166.382ZM258.546 156.627L257.077 155.27L256.613 155.772L256.553 156.453L258.546 156.627ZM267.771 146.641L267.946 144.649L266.968 144.563L266.302 145.284L267.771 146.641ZM278.482 147.578L279.824 149.062L283.225 145.986L278.657 145.586L278.482 147.578ZM257.459 170.521L248.533 169.741L248.184 173.725L257.11 174.506L257.459 170.521ZM250.351 171.907L253.491 136.012L249.507 135.664L246.366 171.559L250.351 171.907ZM251.325 137.83L260.251 138.611L260.599 134.627L251.673 133.846L251.325 137.83ZM258.432 136.445L255.292 172.339L259.277 172.688L262.417 136.793L258.432 136.445ZM263.074 154.092L274.6 175.081L278.106 173.155L266.58 152.167L263.074 154.092ZM276.528 172.125L266.008 171.205L265.659 175.19L276.179 176.11L276.528 172.125ZM267.579 172.22L259.522 157.831L256.032 159.786L264.088 174.175L267.579 172.22ZM259.032 160.366L266.081 154.687L263.572 151.572L256.522 157.251L259.032 160.366ZM259.685 166.556L260.538 156.802L256.553 156.453L255.7 166.208L259.685 166.556ZM260.015 157.984L269.24 147.999L266.302 145.284L257.077 155.27L260.015 157.984ZM267.597 148.634L278.308 149.571L278.657 145.586L267.946 144.649L267.597 148.634ZM277.141 146.095L256.351 164.899L259.034 167.865L279.824 149.062L277.141 146.095Z" fill="#AB7D91" mask="url(#path-4-outside-2_495_82)"/>
<path d="M192.898 121.547L165.31 86.6722L165.308 86.6699C158.666 78.3245 159.513 66.4663 167.681 59.444C171.735 55.9583 176.792 54.7788 181.745 55.2121C186.695 55.6452 191.467 57.6825 194.856 61.8145L197.138 64.7197L197.797 65.5585L198.591 64.8468L201.335 62.3891C209.474 55.7015 221.673 56.771 228.524 64.7748C235.34 73.1083 234.114 84.9279 226.126 91.9907L226.123 91.9927L192.898 121.547Z" fill="#9F3924" stroke="#AB7D91" stroke-width="2"/>
</svg>
