<svg width="1333" height="517" viewBox="0 0 1333 517" fill="none" xmlns="http://www.w3.org/2000/svg">
<g filter="url(#filter0_d_451_502)">
<rect x="107" y="166.842" width="1105.2" height="240.956" rx="20" transform="rotate(-3 107 166.842)" fill="#992444"/>
</g>
<rect x="204.031" y="231.887" width="918.976" height="97.2944" rx="20" transform="rotate(-3 204.031 231.887)" fill="#A6CDC4"/>
<path d="M261.483 275.544C261.574 277.282 261.434 278.97 261.062 280.609C260.707 282.229 260.153 283.763 259.402 285.211C258.65 286.641 257.733 287.965 256.653 289.183C255.572 290.384 254.351 291.434 252.99 292.333C251.628 293.231 250.152 293.951 248.561 294.492C246.987 295.015 245.331 295.321 243.593 295.413L232.218 296.009L230.239 258.25L241.614 257.654C243.352 257.563 245.031 257.704 246.653 258.076C248.291 258.43 249.834 258.983 251.281 259.735C252.729 260.486 254.053 261.411 255.255 262.51C256.456 263.591 257.506 264.812 258.404 266.174C259.302 267.517 260.013 268.985 260.536 270.577C261.076 272.15 261.392 273.806 261.483 275.544ZM253.926 275.94C253.844 274.378 253.469 272.927 252.8 271.589C252.149 270.251 251.279 269.099 250.19 268.135C249.118 267.153 247.872 266.4 246.454 265.876C245.054 265.351 243.572 265.129 242.01 265.211L238.245 265.408L239.432 288.053L243.197 287.856C244.759 287.774 246.21 287.407 247.549 286.756C248.904 286.087 250.064 285.216 251.029 284.145C252.01 283.055 252.755 281.81 253.262 280.41C253.787 278.992 254.008 277.502 253.926 275.94ZM293.234 292.811L291.496 292.902L288.503 289.178C287.85 289.828 287.152 290.445 286.408 291.03C285.681 291.596 284.907 292.103 284.085 292.551C283.263 292.982 282.41 293.334 281.527 293.609C280.661 293.884 279.772 294.045 278.859 294.092C276.875 294.196 274.988 293.961 273.198 293.386C271.425 292.81 269.847 291.924 268.464 290.729C267.098 289.516 265.99 288.008 265.138 286.204C264.287 284.4 263.799 282.322 263.676 279.97C263.561 277.776 263.833 275.746 264.492 273.881C265.151 271.998 266.095 270.365 267.325 268.98C268.572 267.594 270.046 266.496 271.746 265.686C273.463 264.856 275.313 264.39 277.297 264.286C278.21 264.238 279.12 264.305 280.027 264.486C280.934 264.667 281.819 264.938 282.683 265.297C283.547 265.657 284.37 266.089 285.154 266.593C285.955 267.097 286.705 267.647 287.405 268.244L290.021 264.754L291.759 264.663L293.234 292.811ZM285.241 278.84C285.19 277.857 284.947 276.919 284.513 276.027C284.095 275.116 283.544 274.326 282.857 273.658C282.17 272.972 281.377 272.442 280.477 272.066C279.594 271.673 278.661 271.502 277.678 271.553C276.695 271.605 275.773 271.82 274.913 272.2C274.07 272.578 273.341 273.109 272.726 273.793C272.128 274.475 271.67 275.309 271.352 276.294C271.033 277.261 270.905 278.359 270.97 279.588C271.034 280.817 271.276 281.904 271.695 282.85C272.114 283.779 272.656 284.551 273.322 285.168C274.005 285.783 274.786 286.235 275.663 286.524C276.559 286.811 277.498 286.929 278.481 286.878C279.464 286.826 280.374 286.567 281.212 286.101C282.067 285.616 282.801 285.006 283.413 284.269C284.025 283.516 284.492 282.673 284.812 281.74C285.15 280.79 285.293 279.823 285.241 278.84ZM305.17 292.185L297.929 292.565L295.863 253.147L303.104 252.768L305.17 292.185ZM317.105 291.56L309.864 291.939L307.798 252.522L315.039 252.142L317.105 291.56ZM349.105 289.883L347.367 289.974L344.373 286.25C343.72 286.9 343.022 287.517 342.278 288.102C341.551 288.668 340.777 289.175 339.955 289.623C339.133 290.053 338.28 290.406 337.397 290.681C336.531 290.956 335.642 291.117 334.729 291.164C332.745 291.268 330.859 291.033 329.068 290.458C327.295 289.882 325.718 288.996 324.335 287.801C322.969 286.588 321.86 285.08 321.008 283.276C320.157 281.472 319.67 279.394 319.546 277.042C319.431 274.848 319.703 272.818 320.363 270.953C321.021 269.07 321.965 267.437 323.195 266.052C324.442 264.666 325.916 263.568 327.616 262.757C329.333 261.928 331.183 261.462 333.167 261.358C334.08 261.31 334.99 261.377 335.897 261.558C336.804 261.739 337.69 262.01 338.553 262.369C339.417 262.729 340.241 263.161 341.024 263.665C341.825 264.169 342.576 264.719 343.276 265.316L345.892 261.826L347.629 261.735L349.105 289.883ZM341.111 275.912C341.06 274.929 340.817 273.991 340.383 273.099C339.966 272.188 339.414 271.398 338.728 270.73C338.04 270.044 337.247 269.514 336.347 269.138C335.464 268.745 334.531 268.573 333.548 268.625C332.565 268.677 331.643 268.892 330.783 269.272C329.94 269.65 329.211 270.181 328.596 270.865C327.998 271.547 327.54 272.381 327.222 273.366C326.903 274.333 326.776 275.431 326.84 276.66C326.904 277.889 327.146 278.976 327.565 279.922C327.984 280.851 328.526 281.623 329.192 282.24C329.875 282.855 330.656 283.307 331.534 283.596C332.429 283.883 333.368 284.001 334.351 283.95C335.334 283.898 336.245 283.639 337.083 283.173C337.937 282.688 338.671 282.077 339.284 281.341C339.896 280.588 340.362 279.745 340.683 278.812C341.02 277.862 341.163 276.895 341.111 275.912ZM369.282 288.826L352.851 289.687L352.476 282.525L368.906 281.663C369.398 281.638 369.81 281.44 370.142 281.071C370.475 280.701 370.629 280.271 370.603 279.779C370.576 279.27 370.383 278.946 370.024 278.806C369.664 278.667 369.239 278.61 368.747 278.635L361.269 279.027C360.023 279.093 358.843 278.917 357.73 278.5C356.617 278.083 355.636 277.492 354.786 276.727C353.935 275.944 353.244 275.021 352.713 273.957C352.2 272.893 351.91 271.738 351.845 270.491C351.78 269.245 351.947 268.066 352.346 266.953C352.763 265.84 353.354 264.859 354.119 264.009C354.884 263.159 355.799 262.477 356.864 261.964C357.927 261.433 359.082 261.135 360.328 261.07L374.889 260.306L375.265 267.468L360.704 268.232C360.212 268.257 359.8 268.455 359.467 268.824C359.135 269.194 358.981 269.624 359.007 270.116C359.034 270.625 359.232 271.055 359.603 271.405C359.972 271.738 360.403 271.891 360.894 271.865L368.372 271.473C369.601 271.409 370.771 271.559 371.881 271.923C372.99 272.27 373.968 272.791 374.814 273.486C375.661 274.181 376.348 275.033 376.876 276.044C377.404 277.055 377.701 278.175 377.765 279.404C377.83 280.65 377.654 281.83 377.238 282.943C376.82 284.039 376.229 285.02 375.464 285.888C374.699 286.737 373.785 287.428 372.721 287.959C371.657 288.472 370.51 288.761 369.282 288.826ZM387.79 254.429C387.831 255.201 387.796 256.039 387.685 256.943C387.59 257.828 387.399 258.718 387.112 259.613C386.841 260.49 386.463 261.337 385.977 262.154C385.492 262.972 384.895 263.672 384.187 264.255L381.238 262.403C381.682 261.816 382.014 261.262 382.233 260.74C382.452 260.218 382.619 259.699 382.733 259.182C382.201 259.122 381.701 258.973 381.23 258.733C380.76 258.494 380.348 258.19 379.994 257.821C379.657 257.434 379.379 256.991 379.159 256.492C378.939 255.993 378.815 255.463 378.785 254.901C378.754 254.304 378.838 253.727 379.038 253.171C379.255 252.614 379.555 252.123 379.938 251.698C380.337 251.255 380.794 250.905 381.308 250.65C381.84 250.375 382.413 250.222 383.027 250.19C383.659 250.157 384.253 250.249 384.81 250.466C385.384 250.665 385.884 250.964 386.31 251.364C386.735 251.747 387.075 252.204 387.332 252.737C387.606 253.268 387.759 253.832 387.79 254.429ZM435.184 285.372L408.748 286.757L406.769 248.998L414.326 248.602L415.909 278.804L434.788 277.815L435.184 285.372ZM464.129 283.855L462.391 283.946L459.397 280.221C458.745 280.872 458.047 281.489 457.303 282.074C456.576 282.64 455.801 283.147 454.98 283.595C454.158 284.025 453.305 284.378 452.421 284.653C451.556 284.927 450.666 285.088 449.754 285.136C447.77 285.24 445.883 285.005 444.093 284.43C442.32 283.854 440.742 282.968 439.359 281.773C437.993 280.56 436.884 279.051 436.033 277.248C435.182 275.444 434.694 273.366 434.571 271.014C434.456 268.82 434.728 266.79 435.387 264.925C436.045 263.042 436.989 261.408 438.219 260.024C439.467 258.638 440.941 257.54 442.641 256.729C444.358 255.9 446.208 255.433 448.192 255.329C449.104 255.282 450.014 255.348 450.922 255.53C451.829 255.711 452.714 255.981 453.578 256.341C454.442 256.701 455.265 257.133 456.049 257.637C456.85 258.141 457.6 258.691 458.3 259.288L460.916 255.798L462.654 255.707L464.129 283.855ZM456.136 269.884C456.085 268.901 455.842 267.963 455.408 267.07C454.99 266.159 454.438 265.37 453.752 264.702C453.065 264.016 452.271 263.486 451.372 263.11C450.489 262.716 449.555 262.545 448.572 262.597C447.589 262.648 446.668 262.864 445.808 263.243C444.965 263.622 444.236 264.153 443.62 264.837C443.022 265.519 442.564 266.353 442.246 267.338C441.927 268.305 441.8 269.403 441.865 270.632C441.929 271.861 442.171 272.948 442.59 273.894C443.008 274.823 443.551 275.595 444.217 276.212C444.9 276.827 445.681 277.279 446.558 277.567C447.453 277.855 448.393 277.973 449.376 277.922C450.359 277.87 451.269 277.611 452.107 277.145C452.962 276.66 453.696 276.049 454.308 275.313C454.92 274.559 455.386 273.716 455.707 272.784C456.045 271.834 456.188 270.867 456.136 269.884ZM476.012 283.232L468.823 283.609L467.346 255.408L469.083 255.317L471.628 258.537C472.732 257.423 474.006 256.547 475.451 255.908C476.895 255.251 478.407 254.881 479.987 254.798L486.333 254.466L486.708 261.628L480.363 261.961C479.608 262 478.904 262.178 478.252 262.494C477.599 262.809 477.04 263.226 476.575 263.743C476.109 264.261 475.753 264.86 475.507 265.542C475.261 266.224 475.158 266.942 475.198 267.697L476.012 283.232ZM509.129 267.107C509.077 266.124 508.835 265.186 508.401 264.293C507.983 263.382 507.431 262.593 506.745 261.924C506.058 261.239 505.264 260.708 504.364 260.333C503.481 259.939 502.548 259.768 501.565 259.82C500.582 259.871 499.661 260.087 498.8 260.466C497.958 260.845 497.229 261.376 496.613 262.059C496.015 262.742 495.557 263.576 495.239 264.56C494.92 265.528 494.793 266.626 494.857 267.855C494.919 269.031 495.159 270.083 495.577 271.012C495.995 271.923 496.537 272.695 497.204 273.329C497.888 273.962 498.67 274.44 499.55 274.764C500.446 275.069 501.385 275.196 502.368 275.144C503.351 275.093 504.262 274.834 505.1 274.367C505.955 273.883 506.688 273.272 507.301 272.536C507.913 271.782 508.379 270.939 508.7 270.007C509.037 269.056 509.18 268.09 509.129 267.107ZM516.936 277.523C517.04 279.506 516.76 281.387 516.096 283.164C515.432 284.942 514.476 286.514 513.228 287.882C511.997 289.25 510.523 290.356 508.808 291.203C507.109 292.049 505.268 292.524 503.285 292.628L499.675 292.764L499.298 285.576L502.855 285.442C503.979 285.384 504.928 285.184 505.702 284.844C506.477 284.522 507.123 284.092 507.641 283.555C508.159 283.035 508.56 282.442 508.841 281.776C509.141 281.109 509.368 280.41 509.524 279.68C509.267 280.151 508.883 280.55 508.372 280.876C507.86 281.184 507.284 281.443 506.644 281.653C506.022 281.879 505.362 282.046 504.663 282.153C503.982 282.259 503.343 282.328 502.746 282.359C500.763 282.463 498.875 282.219 497.084 281.626C495.31 281.032 493.732 280.138 492.349 278.943C490.983 277.73 489.874 276.222 489.023 274.418C488.172 272.614 487.685 270.554 487.564 268.237C487.452 266.113 487.726 264.118 488.385 262.253C489.045 260.388 489.989 258.754 491.218 257.352C492.464 255.949 493.937 254.824 495.635 253.978C497.351 253.132 499.201 252.656 501.184 252.552C502.097 252.504 503.007 252.571 503.914 252.752C504.822 252.934 505.707 253.204 506.571 253.564C507.435 253.923 508.258 254.355 509.042 254.86C509.842 255.364 510.593 255.914 511.293 256.511L513.909 253.021L515.647 252.93L516.936 277.523ZM532.672 273.345C532.957 273.418 533.241 273.465 533.524 273.485C533.806 273.488 534.087 273.482 534.368 273.467C535.07 273.43 535.741 273.298 536.38 273.071C537.02 272.844 537.611 272.54 538.154 272.16C538.714 271.761 539.2 271.295 539.613 270.763C540.041 270.213 540.38 269.614 540.627 268.967L546.171 273.984C545.554 274.967 544.826 275.859 543.988 276.66C543.167 277.459 542.262 278.149 541.271 278.729C540.298 279.308 539.257 279.759 538.147 280.081C537.056 280.42 535.922 280.62 534.746 280.682C532.762 280.786 530.874 280.515 529.08 279.87C527.303 279.224 525.722 278.277 524.337 277.029C522.969 275.781 521.86 274.272 521.01 272.504C520.16 270.718 519.677 268.736 519.563 266.56C519.446 264.33 519.717 262.274 520.375 260.392C521.034 258.509 521.978 256.884 523.209 255.517C524.458 254.149 525.932 253.059 527.632 252.249C529.35 251.437 531.2 250.979 533.184 250.875C534.36 250.814 535.517 250.894 536.655 251.116C537.794 251.338 538.877 251.686 539.905 252.16C540.951 252.633 541.933 253.233 542.851 253.959C543.768 254.668 544.585 255.479 545.302 256.392L532.672 273.345ZM535.581 258.327C535.241 258.222 534.904 258.16 534.568 258.143C534.25 258.124 533.916 258.124 533.565 258.143C532.582 258.194 531.661 258.427 530.803 258.842C529.961 259.238 529.233 259.787 528.618 260.488C528.021 261.188 527.563 262.022 527.244 262.989C526.925 263.938 526.795 265.001 526.857 266.177C526.871 266.441 526.895 266.739 526.93 267.071C526.983 267.403 527.045 267.743 527.116 268.091C527.203 268.421 527.299 268.742 527.404 269.053C527.508 269.365 527.637 269.639 527.79 269.878L535.581 258.327ZM564.822 278.578L548.392 279.439L548.016 272.277L564.447 271.416C564.938 271.39 565.351 271.192 565.683 270.823C566.016 270.453 566.169 270.023 566.144 269.531C566.117 269.022 565.924 268.698 565.565 268.558C565.205 268.419 564.78 268.362 564.288 268.388L556.81 268.779C555.564 268.845 554.384 268.669 553.271 268.252C552.158 267.835 551.176 267.244 550.326 266.479C549.476 265.696 548.785 264.773 548.254 263.71C547.74 262.645 547.451 261.49 547.386 260.243C547.32 258.997 547.487 257.818 547.887 256.706C548.304 255.592 548.895 254.611 549.66 253.761C550.425 252.911 551.34 252.23 552.404 251.716C553.468 251.185 554.623 250.887 555.869 250.822L570.43 250.059L570.805 257.221L556.244 257.984C555.753 258.009 555.341 258.207 555.008 258.577C554.675 258.946 554.522 259.377 554.548 259.868C554.574 260.377 554.773 260.807 555.143 261.157C555.513 261.49 555.943 261.643 556.435 261.617L563.913 261.225C565.142 261.161 566.311 261.311 567.422 261.675C568.531 262.022 569.509 262.543 570.355 263.238C571.201 263.933 571.888 264.786 572.417 265.796C572.945 266.807 573.241 267.927 573.306 269.156C573.371 270.402 573.195 271.582 572.778 272.695C572.36 273.791 571.769 274.772 571.005 275.64C570.24 276.489 569.326 277.18 568.262 277.711C567.198 278.224 566.051 278.513 564.822 278.578ZM590.95 277.208C589.212 277.299 587.563 277.06 586.001 276.491C584.439 275.904 583.049 275.07 581.831 273.99C580.629 272.891 579.654 271.596 578.907 270.103C578.178 268.61 577.768 266.995 577.676 265.257L577.238 256.884L573.736 257.067L573.36 249.905L576.862 249.721L576.272 238.452L583.434 238.076L584.024 249.346L594.925 248.775L595.301 255.937L584.4 256.508L584.839 264.881C584.878 265.636 585.056 266.34 585.372 266.992C585.686 267.627 586.103 268.177 586.62 268.643C587.137 269.109 587.737 269.473 588.42 269.737C589.102 269.983 589.82 270.086 590.575 270.046L596.025 269.761L596.401 276.923L590.95 277.208ZM622.272 275.567L614.715 275.963L612.737 238.204L620.294 237.808L622.272 275.567ZM634.919 274.904L627.73 275.281L626.252 247.08L627.99 246.989L630.504 249.603C631.607 248.489 632.872 247.613 634.3 246.975C635.744 246.319 637.265 245.949 638.862 245.865C640.583 245.775 642.224 246.023 643.786 246.61C645.347 247.18 646.729 248.014 647.93 249.113C649.131 250.194 650.097 251.49 650.827 253C651.574 254.493 651.994 256.108 652.085 257.846L652.929 273.96L645.741 274.337L644.896 258.222C644.858 257.485 644.681 256.799 644.366 256.164C644.05 255.512 643.634 254.953 643.116 254.487C642.599 254.021 642.008 253.665 641.344 253.418C640.68 253.171 639.979 253.067 639.242 253.106C638.487 253.145 637.783 253.323 637.131 253.639C636.479 253.955 635.92 254.371 635.454 254.889C634.988 255.406 634.632 256.005 634.386 256.687C634.14 257.351 634.036 258.052 634.074 258.789L634.919 274.904ZM680.717 249.85L675.728 255.418C675.426 254.695 675.032 254.055 674.545 253.5C674.057 252.927 673.513 252.454 672.913 252.081C672.33 251.706 671.699 251.431 671.021 251.256C670.343 251.08 669.653 251.01 668.951 251.047C667.968 251.099 667.048 251.349 666.191 251.799C665.352 252.248 664.627 252.858 664.017 253.629C663.422 254.382 662.967 255.269 662.651 256.288C662.335 257.308 662.208 258.424 662.272 259.635C662.323 260.618 662.556 261.53 662.97 262.371C663.383 263.212 663.923 263.94 664.589 264.557C665.273 265.172 666.054 265.642 666.934 265.965C667.831 266.288 668.771 266.423 669.754 266.372C670.456 266.335 671.127 266.203 671.766 265.976C672.406 265.749 672.997 265.445 673.54 265.065C674.1 264.666 674.586 264.2 674.998 263.668C675.427 263.117 675.765 262.519 676.013 261.872L681.557 266.889C680.939 267.872 680.212 268.763 679.374 269.564C678.553 270.364 677.647 271.054 676.657 271.634C675.684 272.213 674.643 272.664 673.533 272.986C672.442 273.325 671.308 273.525 670.132 273.587C668.148 273.691 666.26 273.42 664.465 272.775C662.688 272.111 661.107 271.164 659.722 269.934C658.355 268.703 657.249 267.239 656.403 265.54C655.557 263.842 655.082 262.001 654.978 260.017C654.865 257.858 655.137 255.82 655.793 253.902C656.449 251.984 657.391 250.298 658.617 248.843C659.86 247.37 661.329 246.184 663.025 245.285C664.738 244.386 666.586 243.884 668.57 243.78C669.746 243.718 670.904 243.807 672.043 244.047C673.199 244.285 674.302 244.668 675.35 245.194C676.416 245.701 677.4 246.345 678.303 247.125C679.224 247.904 680.029 248.812 680.717 249.85ZM691.861 271.92L684.62 272.299L682.554 232.882L689.795 232.502L691.861 271.92ZM717.105 267.296C716.554 267.853 715.957 268.386 715.315 268.895C714.689 269.386 714.026 269.825 713.324 270.214C712.622 270.585 711.89 270.888 711.128 271.121C710.384 271.372 709.617 271.517 708.827 271.559C707.089 271.65 705.44 271.428 703.881 270.894C702.322 270.359 700.933 269.561 699.716 268.498C698.515 267.417 697.539 266.086 696.787 264.506C696.052 262.908 695.632 261.099 695.526 259.081L694.709 243.493L701.871 243.117L702.688 258.705C702.738 259.653 702.923 260.497 703.243 261.237C703.58 261.959 704.008 262.561 704.526 263.045C705.044 263.528 705.635 263.884 706.298 264.114C706.979 264.342 707.697 264.436 708.452 264.397C709.189 264.358 709.874 264.155 710.506 263.787C711.154 263.401 711.71 262.915 712.172 262.327C712.634 261.74 712.987 261.087 713.231 260.371C713.474 259.636 713.576 258.891 713.536 258.137L712.719 242.549L719.908 242.172L721.386 270.373L719.648 270.464L717.105 267.296ZM741.563 269.315L725.132 270.176L724.757 263.014L741.187 262.153C741.679 262.127 742.091 261.93 742.424 261.56C742.756 261.191 742.91 260.76 742.884 260.269C742.857 259.76 742.664 259.435 742.305 259.296C741.945 259.156 741.52 259.099 741.029 259.125L733.551 259.517C732.304 259.582 731.124 259.406 730.011 258.989C728.898 258.573 727.917 257.982 727.067 257.216C726.216 256.434 725.525 255.511 724.994 254.447C724.481 253.383 724.191 252.227 724.126 250.981C724.061 249.735 724.228 248.555 724.627 247.443C725.044 246.33 725.635 245.348 726.4 244.498C727.165 243.649 728.08 242.967 729.145 242.454C730.208 241.923 731.363 241.624 732.609 241.559L747.17 240.796L747.546 247.958L732.985 248.721C732.493 248.747 732.081 248.945 731.748 249.314C731.416 249.683 731.262 250.114 731.288 250.605C731.315 251.115 731.513 251.544 731.884 251.894C732.253 252.227 732.684 252.381 733.175 252.355L740.653 251.963C741.882 251.899 743.052 252.048 744.162 252.413C745.272 252.759 746.249 253.28 747.095 253.975C747.942 254.67 748.629 255.523 749.157 256.534C749.685 257.545 749.982 258.665 750.046 259.893C750.111 261.14 749.935 262.319 749.519 263.433C749.101 264.528 748.51 265.51 747.745 266.377C746.98 267.227 746.066 267.917 745.002 268.448C743.938 268.962 742.791 269.251 741.563 269.315ZM760.15 232.38C760.185 233.047 760.086 233.677 759.853 234.27C759.637 234.862 759.322 235.389 758.906 235.851C758.489 236.295 757.989 236.665 757.406 236.959C756.84 237.235 756.223 237.391 755.556 237.426C754.889 237.461 754.25 237.371 753.641 237.156C753.048 236.924 752.521 236.608 752.06 236.21C751.615 235.793 751.246 235.302 750.953 234.736C750.677 234.17 750.521 233.553 750.486 232.886C750.452 232.237 750.543 231.616 750.758 231.024C750.99 230.413 751.306 229.886 751.705 229.443C752.121 228.981 752.612 228.612 753.178 228.336C753.762 228.041 754.387 227.876 755.054 227.841C755.721 227.806 756.351 227.905 756.944 228.138C757.554 228.353 758.089 228.668 758.551 229.084C759.012 229.482 759.381 229.973 759.658 230.557C759.952 231.123 760.116 231.73 760.15 232.38ZM760.792 268.307L753.551 268.687L752.073 240.486L759.314 240.107L760.792 268.307ZM773.491 267.642L761.27 240.004L769.459 239.575L776.542 256.841L781.755 238.931L789.97 238.5L780.705 267.264L773.491 267.642ZM803.391 259.157C803.676 259.23 803.96 259.277 804.243 259.297C804.525 259.3 804.806 259.294 805.087 259.279C805.789 259.243 806.46 259.111 807.099 258.884C807.739 258.656 808.33 258.353 808.873 257.972C809.433 257.573 809.919 257.108 810.332 256.575C810.76 256.025 811.099 255.426 811.346 254.78L816.89 259.796C816.273 260.779 815.545 261.671 814.707 262.472C813.886 263.272 812.981 263.962 811.99 264.542C811.017 265.121 809.976 265.571 808.866 265.893C807.775 266.232 806.641 266.433 805.465 266.494C803.481 266.598 801.593 266.327 799.799 265.682C798.022 265.036 796.441 264.089 795.056 262.842C793.688 261.593 792.579 260.085 791.729 258.316C790.879 256.53 790.396 254.549 790.282 252.372C790.166 250.143 790.436 248.087 791.094 246.204C791.753 244.321 792.697 242.696 793.928 241.329C795.177 239.961 796.651 238.872 798.351 238.061C800.069 237.249 801.919 236.791 803.903 236.687C805.079 236.626 806.236 236.706 807.374 236.928C808.513 237.15 809.596 237.498 810.624 237.972C811.67 238.445 812.652 239.045 813.57 239.772C814.487 240.48 815.304 241.291 816.021 242.204L803.391 259.157ZM806.3 244.14C805.96 244.034 805.623 243.973 805.287 243.955C804.969 243.936 804.635 243.936 804.284 243.955C803.301 244.006 802.38 244.239 801.522 244.654C800.68 245.05 799.952 245.599 799.337 246.3C798.74 247 798.282 247.834 797.963 248.801C797.644 249.751 797.514 250.814 797.576 251.99C797.59 252.253 797.614 252.551 797.649 252.884C797.702 253.215 797.764 253.555 797.835 253.904C797.922 254.233 798.018 254.554 798.123 254.865C798.227 255.177 798.356 255.452 798.509 255.69L806.3 244.14ZM842.684 264.016L835.127 264.412L833.148 226.653L840.706 226.257L841.498 241.371L856.585 240.58L855.793 225.466L863.35 225.07L865.329 262.829L857.772 263.225L856.981 248.137L841.894 248.928L842.684 264.016ZM897.671 261.134L895.933 261.225L892.939 257.5C892.287 258.151 891.589 258.768 890.845 259.353C890.118 259.919 889.343 260.426 888.522 260.874C887.699 261.304 886.847 261.657 885.963 261.932C885.098 262.206 884.208 262.367 883.295 262.415C881.312 262.519 879.425 262.284 877.635 261.709C875.862 261.133 874.284 260.247 872.901 259.052C871.535 257.839 870.426 256.33 869.575 254.527C868.723 252.723 868.236 250.645 868.113 248.293C867.998 246.099 868.27 244.069 868.929 242.204C869.587 240.321 870.531 238.687 871.761 237.303C873.009 235.917 874.483 234.819 876.183 234.008C877.9 233.179 879.75 232.712 881.733 232.608C882.646 232.561 883.556 232.627 884.463 232.809C885.371 232.99 886.256 233.26 887.12 233.62C887.984 233.98 888.807 234.412 889.591 234.916C890.391 235.42 891.142 235.97 891.842 236.567L894.458 233.077L896.196 232.986L897.671 261.134ZM889.678 247.163C889.626 246.18 889.384 245.242 888.95 244.349C888.532 243.438 887.98 242.649 887.294 241.981C886.607 241.295 885.813 240.765 884.914 240.389C884.03 239.995 883.097 239.824 882.114 239.876C881.131 239.927 880.21 240.143 879.349 240.522C878.507 240.901 877.778 241.432 877.162 242.116C876.564 242.798 876.106 243.632 875.788 244.617C875.469 245.584 875.342 246.682 875.406 247.911C875.471 249.14 875.713 250.227 876.132 251.173C876.55 252.102 877.092 252.874 877.758 253.491C878.442 254.106 879.222 254.558 880.1 254.847C880.995 255.134 881.934 255.252 882.917 255.201C883.9 255.149 884.811 254.89 885.649 254.424C886.504 253.939 887.237 253.328 887.85 252.592C888.462 251.838 888.928 250.995 889.249 250.063C889.586 249.113 889.729 248.146 889.678 247.163ZM925.827 237.004L920.838 242.573C920.536 241.849 920.142 241.21 919.655 240.654C919.168 240.081 918.623 239.608 918.023 239.235C917.44 238.861 916.81 238.586 916.132 238.41C915.453 238.234 914.763 238.165 914.061 238.202C913.078 238.253 912.158 238.504 911.302 238.953C910.463 239.402 909.738 240.012 909.127 240.784C908.533 241.537 908.078 242.423 907.761 243.443C907.445 244.463 907.319 245.578 907.382 246.789C907.434 247.773 907.666 248.684 908.08 249.525C908.494 250.366 909.034 251.095 909.7 251.711C910.383 252.327 911.165 252.796 912.044 253.12C912.941 253.442 913.881 253.578 914.864 253.526C915.566 253.489 916.237 253.358 916.877 253.13C917.516 252.903 918.107 252.599 918.651 252.219C919.211 251.82 919.697 251.354 920.109 250.822C920.538 250.272 920.876 249.673 921.124 249.026L926.667 254.043C926.05 255.026 925.322 255.918 924.484 256.719C923.663 257.518 922.758 258.208 921.767 258.788C920.794 259.367 919.753 259.818 918.643 260.14C917.552 260.479 916.419 260.679 915.242 260.741C913.259 260.845 911.37 260.574 909.576 259.929C907.799 259.265 906.218 258.318 904.833 257.088C903.466 255.857 902.359 254.393 901.513 252.695C900.668 250.996 900.193 249.155 900.089 247.172C899.975 245.013 900.247 242.974 900.903 241.056C901.56 239.138 902.501 237.452 903.728 235.997C904.971 234.524 906.44 233.338 908.135 232.439C909.848 231.54 911.697 231.038 913.68 230.934C914.856 230.873 916.014 230.962 917.153 231.201C918.31 231.44 919.412 231.822 920.461 232.348C921.526 232.855 922.51 233.499 923.414 234.279C924.335 235.058 925.139 235.966 925.827 237.004ZM936.972 259.074L929.731 259.454L927.665 220.036L934.906 219.657L936.209 244.513L946.213 230.365L954.481 229.931L945.749 242.165L955.956 258.079L947.688 258.512L941.438 248.569L936.783 255.467L936.972 259.074ZM984.401 256.588L982.663 256.68L979.669 252.955C979.017 253.605 978.319 254.223 977.575 254.808C976.848 255.374 976.073 255.881 975.252 256.329C974.43 256.759 973.577 257.112 972.694 257.387C971.828 257.661 970.939 257.822 970.026 257.87C968.042 257.974 966.155 257.738 964.365 257.163C962.592 256.587 961.014 255.702 959.631 254.507C958.265 253.294 957.156 251.785 956.305 249.981C955.454 248.178 954.966 246.1 954.843 243.748C954.728 241.553 955 239.524 955.659 237.659C956.317 235.776 957.262 234.142 958.492 232.758C959.739 231.372 961.213 230.274 962.913 229.463C964.63 228.634 966.48 228.167 968.464 228.063C969.376 228.015 970.286 228.082 971.194 228.263C972.101 228.445 972.986 228.715 973.85 229.075C974.714 229.434 975.537 229.866 976.321 230.371C977.122 230.875 977.872 231.425 978.572 232.022L981.188 228.532L982.926 228.441L984.401 256.588ZM976.408 242.618C976.357 241.634 976.114 240.697 975.68 239.804C975.262 238.893 974.711 238.103 974.024 237.435C973.337 236.75 972.544 236.219 971.644 235.844C970.761 235.45 969.828 235.279 968.845 235.331C967.861 235.382 966.94 235.598 966.08 235.977C965.237 236.356 964.508 236.887 963.892 237.57C963.295 238.253 962.837 239.087 962.519 240.071C962.2 241.039 962.072 242.137 962.137 243.365C962.201 244.594 962.443 245.682 962.862 246.628C963.28 247.556 963.823 248.329 964.489 248.945C965.172 249.561 965.953 250.013 966.83 250.301C967.726 250.589 968.665 250.707 969.648 250.655C970.631 250.604 971.541 250.345 972.379 249.878C973.234 249.394 973.968 248.783 974.58 248.047C975.192 247.293 975.658 246.45 975.979 245.518C976.317 244.567 976.46 243.601 976.408 242.618ZM1003.24 255.601C1001.5 255.692 999.848 255.453 998.287 254.884C996.725 254.297 995.334 253.463 994.116 252.383C992.914 251.284 991.94 249.989 991.193 248.496C990.463 247.003 990.053 245.388 989.962 243.65L989.523 235.277L986.021 235.46L985.646 228.298L989.148 228.115L988.557 216.845L995.719 216.469L996.31 227.739L1007.21 227.168L1007.59 234.33L996.685 234.901L997.124 243.274C997.163 244.029 997.341 244.733 997.657 245.385C997.972 246.02 998.388 246.57 998.905 247.036C999.422 247.502 1000.02 247.866 1000.71 248.13C1001.39 248.376 1002.11 248.479 1002.86 248.439L1008.31 248.154L1008.69 255.316L1003.24 255.601ZM1019.12 254.769L1011.93 255.146L1009.87 215.728L1017.05 215.351L1017.71 227.806C1018.53 227.111 1019.4 226.608 1020.29 226.297C1021.19 225.969 1022.12 225.779 1023.06 225.73C1024.8 225.639 1026.45 225.887 1028.01 226.474C1029.58 227.043 1030.95 227.878 1032.13 228.977C1033.33 230.059 1034.3 231.355 1035.03 232.865C1035.78 234.358 1036.2 235.973 1036.29 237.71L1037.13 253.825L1029.89 254.205L1029.05 238.09L1029.1 238.087C1029.06 237.35 1028.88 236.664 1028.57 236.029C1028.25 235.377 1027.84 234.818 1027.32 234.352C1026.8 233.886 1026.21 233.53 1025.55 233.283C1024.88 233.036 1024.18 232.932 1023.44 232.971C1022.69 233.01 1021.99 233.188 1021.33 233.504C1020.68 233.82 1020.12 234.236 1019.66 234.753C1019.19 235.271 1018.83 235.87 1018.59 236.552C1018.34 237.216 1018.24 237.917 1018.28 238.654L1019.12 254.769ZM1067.96 237.82C1068.07 239.926 1067.79 241.912 1067.13 243.777C1066.47 245.625 1065.53 247.25 1064.3 248.652C1063.07 250.036 1061.6 251.161 1059.88 252.025C1058.18 252.871 1056.33 253.347 1054.33 253.452C1052.35 253.555 1050.46 253.276 1048.67 252.613C1046.89 251.932 1045.31 250.967 1043.92 249.72C1042.55 248.454 1041.44 246.937 1040.59 245.168C1039.74 243.382 1039.26 241.436 1039.15 239.329C1039.04 237.188 1039.31 235.184 1039.97 233.319C1040.63 231.454 1041.57 229.829 1042.8 228.444C1044.05 227.041 1045.52 225.917 1047.22 225.071C1048.94 224.224 1050.79 223.749 1052.77 223.645C1054.77 223.54 1056.66 223.802 1058.44 224.43C1060.23 225.041 1061.81 225.97 1063.18 227.218C1064.54 228.449 1065.65 229.967 1066.5 231.77C1067.36 233.556 1067.84 235.573 1067.96 237.82ZM1060.72 238.199C1060.66 237.041 1060.41 236.006 1059.97 235.096C1059.55 234.167 1059 233.387 1058.32 232.754C1057.63 232.103 1056.84 231.625 1055.95 231.32C1055.07 230.997 1054.14 230.861 1053.15 230.912C1052.17 230.964 1051.25 231.197 1050.39 231.611C1049.55 232.008 1048.82 232.565 1048.21 233.284C1047.61 233.984 1047.15 234.817 1046.83 235.785C1046.51 236.734 1046.38 237.788 1046.44 238.947C1046.5 240.035 1046.74 241.035 1047.16 241.946C1047.57 242.857 1048.12 243.638 1048.78 244.29C1049.47 244.941 1050.25 245.445 1051.13 245.804C1052.03 246.144 1052.97 246.288 1053.96 246.237C1054.94 246.185 1055.85 245.953 1056.69 245.539C1057.55 245.124 1058.29 244.566 1058.9 243.865C1059.52 243.164 1059.98 242.33 1060.3 241.363C1060.64 240.395 1060.78 239.34 1060.72 238.199ZM1079.06 251.627L1071.88 252.004L1070.4 223.804L1072.14 223.712L1074.65 226.327C1075.75 225.213 1077.02 224.337 1078.45 223.699C1079.89 223.042 1081.41 222.672 1083.01 222.588C1084.73 222.498 1086.37 222.746 1087.93 223.333C1089.49 223.903 1090.87 224.737 1092.08 225.836C1093.28 226.917 1094.24 228.213 1094.97 229.724C1095.72 231.216 1096.14 232.831 1096.23 234.569L1097.07 250.683L1089.89 251.06L1089.04 234.946C1089 234.208 1088.83 233.522 1088.51 232.888C1088.2 232.235 1087.78 231.676 1087.26 231.21C1086.74 230.745 1086.15 230.388 1085.49 230.142C1084.83 229.895 1084.12 229.791 1083.39 229.829C1082.63 229.869 1081.93 230.046 1081.28 230.362C1080.62 230.678 1080.07 231.095 1079.6 231.612C1079.13 232.129 1078.78 232.729 1078.53 233.411C1078.29 234.075 1078.18 234.775 1078.22 235.513L1079.06 251.627Z" fill="#992444"/>
<g filter="url(#filter1_d_451_502)">
<circle cx="1177.39" cy="199.8" r="19.7629" transform="rotate(-3 1177.39 199.8)" fill="#D09C51"/>
</g>
<g filter="url(#filter2_d_451_502)">
<circle cx="1180.45" cy="258.249" r="19.7629" transform="rotate(-3 1180.45 258.249)" fill="#D09C51"/>
</g>
<g filter="url(#filter3_d_451_502)">
<circle cx="1174.49" cy="144.388" r="19.7629" transform="rotate(-3 1174.49 144.388)" fill="#D09C51"/>
</g>
<g filter="url(#filter4_d_451_502)">
<circle cx="1183.52" cy="316.697" r="19.7629" transform="rotate(-3 1183.52 316.697)" fill="#D09C51"/>
</g>
<g filter="url(#filter5_d_451_502)">
<circle cx="1128.86" cy="319.562" r="19.7629" transform="rotate(-3 1128.86 319.562)" fill="#D09C51"/>
</g>
<g filter="url(#filter6_d_451_502)">
<circle cx="144.334" cy="254.702" r="19.7629" transform="rotate(-3 144.334 254.702)" fill="#D09C51"/>
<circle cx="147.397" cy="313.15" r="19.7629" transform="rotate(-3 147.397 313.15)" fill="#D09C51"/>
<circle cx="141.429" cy="199.289" r="19.7629" transform="rotate(-3 141.429 199.289)" fill="#D09C51"/>
<circle cx="150.46" cy="371.598" r="19.7629" transform="rotate(-3 150.46 371.598)" fill="#D09C51"/>
</g>
<g filter="url(#filter7_d_451_502)">
<circle cx="264.322" cy="365.631" r="19.7629" transform="rotate(-93 264.322 365.631)" fill="#D09C51"/>
<circle cx="322.77" cy="362.568" r="19.7629" transform="rotate(-93 322.77 362.568)" fill="#D09C51"/>
<circle cx="208.91" cy="368.535" r="19.7629" transform="rotate(-93 208.91 368.535)" fill="#D09C51"/>
<circle cx="381.218" cy="359.505" r="19.7629" transform="rotate(-93 381.218 359.505)" fill="#D09C51"/>
</g>
<g filter="url(#filter8_d_451_502)">
<circle cx="495.039" cy="352.779" r="19.7629" transform="rotate(-93 495.039 352.779)" fill="#D09C51"/>
<circle cx="553.488" cy="349.716" r="19.7629" transform="rotate(-93 553.488 349.716)" fill="#D09C51"/>
<circle cx="439.626" cy="355.683" r="19.7629" transform="rotate(-93 439.626 355.683)" fill="#D09C51"/>
<circle cx="611.936" cy="346.652" r="19.7629" transform="rotate(-93 611.936 346.652)" fill="#D09C51"/>
<circle cx="725.835" cy="341.444" r="19.7629" transform="rotate(-93 725.835 341.444)" fill="#D09C51"/>
<circle cx="784.284" cy="338.381" r="19.7629" transform="rotate(-93 784.284 338.381)" fill="#D09C51"/>
<circle cx="670.423" cy="344.349" r="19.7629" transform="rotate(-93 670.423 344.349)" fill="#D09C51"/>
<circle cx="842.732" cy="335.318" r="19.7629" transform="rotate(-93 842.732 335.318)" fill="#D09C51"/>
<circle cx="956.553" cy="328.592" r="19.7629" transform="rotate(-93 956.553 328.592)" fill="#D09C51"/>
<circle cx="1015" cy="325.529" r="19.7629" transform="rotate(-93 1015 325.529)" fill="#D09C51"/>
<circle cx="901.141" cy="331.496" r="19.7629" transform="rotate(-93 901.141 331.496)" fill="#D09C51"/>
<circle cx="1073.45" cy="322.465" r="19.7629" transform="rotate(-93 1073.45 322.465)" fill="#D09C51"/>
</g>
<g filter="url(#filter9_d_451_502)">
<circle cx="1118.23" cy="145.814" r="19.7629" transform="rotate(-3 1118.23 145.814)" fill="#D09C51"/>
</g>
<g filter="url(#filter10_d_451_502)">
<circle cx="253.693" cy="191.884" r="19.7629" transform="rotate(-93 253.693 191.884)" fill="#D09C51"/>
<circle cx="312.141" cy="188.821" r="19.7629" transform="rotate(-93 312.141 188.821)" fill="#D09C51"/>
<circle cx="198.281" cy="194.788" r="19.7629" transform="rotate(-93 198.281 194.788)" fill="#D09C51"/>
<circle cx="370.589" cy="185.757" r="19.7629" transform="rotate(-93 370.589 185.757)" fill="#D09C51"/>
</g>
<g filter="url(#filter11_d_451_502)">
<circle cx="484.411" cy="179.031" r="19.7629" transform="rotate(-93 484.411 179.031)" fill="#D09C51"/>
<circle cx="542.86" cy="175.968" r="19.7629" transform="rotate(-93 542.86 175.968)" fill="#D09C51"/>
<circle cx="428.998" cy="181.935" r="19.7629" transform="rotate(-93 428.998 181.935)" fill="#D09C51"/>
<circle cx="601.308" cy="172.905" r="19.7629" transform="rotate(-93 601.308 172.905)" fill="#D09C51"/>
<circle cx="715.208" cy="167.697" r="19.7629" transform="rotate(-93 715.208 167.697)" fill="#D09C51"/>
<circle cx="773.657" cy="164.634" r="19.7629" transform="rotate(-93 773.657 164.634)" fill="#D09C51"/>
<circle cx="659.796" cy="170.601" r="19.7629" transform="rotate(-93 659.796 170.601)" fill="#D09C51"/>
<circle cx="832.105" cy="161.57" r="19.7629" transform="rotate(-93 832.105 161.57)" fill="#D09C51"/>
<circle cx="945.926" cy="154.844" r="19.7629" transform="rotate(-93 945.926 154.844)" fill="#D09C51"/>
<circle cx="1004.37" cy="151.781" r="19.7629" transform="rotate(-93 1004.37 151.781)" fill="#D09C51"/>
<circle cx="890.514" cy="157.748" r="19.7629" transform="rotate(-93 890.514 157.748)" fill="#D09C51"/>
<circle cx="1062.82" cy="148.718" r="19.7629" transform="rotate(-93 1062.82 148.718)" fill="#D09C51"/>
</g>
<defs>
<filter id="filter0_d_451_502" x="-1.98145" y="0.0187988" width="1334.26" height="516.43" filterUnits="userSpaceOnUse" color-interpolation-filters="sRGB">
<feFlood flood-opacity="0" result="BackgroundImageFix"/>
<feColorMatrix in="SourceAlpha" type="matrix" values="0 0 0 0 0 0 0 0 0 0 0 0 0 0 0 0 0 0 127 0" result="hardAlpha"/>
<feMorphology radius="10" operator="dilate" in="SourceAlpha" result="effect1_dropShadow_451_502"/>
<feOffset/>
<feGaussianBlur stdDeviation="50"/>
<feComposite in2="hardAlpha" operator="out"/>
<feColorMatrix type="matrix" values="0 0 0 0 0.6 0 0 0 0 0.141176 0 0 0 0 0.266667 0 0 0 1 0"/>
<feBlend mode="normal" in2="BackgroundImageFix" result="effect1_dropShadow_451_502"/>
<feBlend mode="normal" in="SourceGraphic" in2="effect1_dropShadow_451_502" result="shape"/>
</filter>
<filter id="filter1_d_451_502" x="1137.63" y="160.037" width="79.5264" height="79.5269" filterUnits="userSpaceOnUse" color-interpolation-filters="sRGB">
<feFlood flood-opacity="0" result="BackgroundImageFix"/>
<feColorMatrix in="SourceAlpha" type="matrix" values="0 0 0 0 0 0 0 0 0 0 0 0 0 0 0 0 0 0 127 0" result="hardAlpha"/>
<feOffset/>
<feGaussianBlur stdDeviation="10"/>
<feComposite in2="hardAlpha" operator="out"/>
<feColorMatrix type="matrix" values="0 0 0 0 0.916667 0 0 0 0 0.627351 0 0 0 0 0.210069 0 0 0 1 0"/>
<feBlend mode="normal" in2="BackgroundImageFix" result="effect1_dropShadow_451_502"/>
<feBlend mode="normal" in="SourceGraphic" in2="effect1_dropShadow_451_502" result="shape"/>
</filter>
<filter id="filter2_d_451_502" x="1140.69" y="218.485" width="79.5264" height="79.5269" filterUnits="userSpaceOnUse" color-interpolation-filters="sRGB">
<feFlood flood-opacity="0" result="BackgroundImageFix"/>
<feColorMatrix in="SourceAlpha" type="matrix" values="0 0 0 0 0 0 0 0 0 0 0 0 0 0 0 0 0 0 127 0" result="hardAlpha"/>
<feOffset/>
<feGaussianBlur stdDeviation="10"/>
<feComposite in2="hardAlpha" operator="out"/>
<feColorMatrix type="matrix" values="0 0 0 0 0.916667 0 0 0 0 0.627351 0 0 0 0 0.210069 0 0 0 1 0"/>
<feBlend mode="normal" in2="BackgroundImageFix" result="effect1_dropShadow_451_502"/>
<feBlend mode="normal" in="SourceGraphic" in2="effect1_dropShadow_451_502" result="shape"/>
</filter>
<filter id="filter3_d_451_502" x="1134.72" y="104.625" width="79.5264" height="79.5269" filterUnits="userSpaceOnUse" color-interpolation-filters="sRGB">
<feFlood flood-opacity="0" result="BackgroundImageFix"/>
<feColorMatrix in="SourceAlpha" type="matrix" values="0 0 0 0 0 0 0 0 0 0 0 0 0 0 0 0 0 0 127 0" result="hardAlpha"/>
<feOffset/>
<feGaussianBlur stdDeviation="10"/>
<feComposite in2="hardAlpha" operator="out"/>
<feColorMatrix type="matrix" values="0 0 0 0 0.916667 0 0 0 0 0.627351 0 0 0 0 0.210069 0 0 0 1 0"/>
<feBlend mode="normal" in2="BackgroundImageFix" result="effect1_dropShadow_451_502"/>
<feBlend mode="normal" in="SourceGraphic" in2="effect1_dropShadow_451_502" result="shape"/>
</filter>
<filter id="filter4_d_451_502" x="1143.75" y="276.934" width="79.5264" height="79.5269" filterUnits="userSpaceOnUse" color-interpolation-filters="sRGB">
<feFlood flood-opacity="0" result="BackgroundImageFix"/>
<feColorMatrix in="SourceAlpha" type="matrix" values="0 0 0 0 0 0 0 0 0 0 0 0 0 0 0 0 0 0 127 0" result="hardAlpha"/>
<feOffset/>
<feGaussianBlur stdDeviation="10"/>
<feComposite in2="hardAlpha" operator="out"/>
<feColorMatrix type="matrix" values="0 0 0 0 0.916667 0 0 0 0 0.627351 0 0 0 0 0.210069 0 0 0 1 0"/>
<feBlend mode="normal" in2="BackgroundImageFix" result="effect1_dropShadow_451_502"/>
<feBlend mode="normal" in="SourceGraphic" in2="effect1_dropShadow_451_502" result="shape"/>
</filter>
<filter id="filter5_d_451_502" x="1089.1" y="279.798" width="79.5264" height="79.5269" filterUnits="userSpaceOnUse" color-interpolation-filters="sRGB">
<feFlood flood-opacity="0" result="BackgroundImageFix"/>
<feColorMatrix in="SourceAlpha" type="matrix" values="0 0 0 0 0 0 0 0 0 0 0 0 0 0 0 0 0 0 127 0" result="hardAlpha"/>
<feOffset/>
<feGaussianBlur stdDeviation="10"/>
<feComposite in2="hardAlpha" operator="out"/>
<feColorMatrix type="matrix" values="0 0 0 0 0.916667 0 0 0 0 0.627351 0 0 0 0 0.210069 0 0 0 1 0"/>
<feBlend mode="normal" in2="BackgroundImageFix" result="effect1_dropShadow_451_502"/>
<feBlend mode="normal" in="SourceGraphic" in2="effect1_dropShadow_451_502" result="shape"/>
</filter>
<filter id="filter6_d_451_502" x="101.666" y="159.526" width="88.5566" height="251.836" filterUnits="userSpaceOnUse" color-interpolation-filters="sRGB">
<feFlood flood-opacity="0" result="BackgroundImageFix"/>
<feColorMatrix in="SourceAlpha" type="matrix" values="0 0 0 0 0 0 0 0 0 0 0 0 0 0 0 0 0 0 127 0" result="hardAlpha"/>
<feOffset/>
<feGaussianBlur stdDeviation="10"/>
<feComposite in2="hardAlpha" operator="out"/>
<feColorMatrix type="matrix" values="0 0 0 0 0.916667 0 0 0 0 0.627351 0 0 0 0 0.210069 0 0 0 1 0"/>
<feBlend mode="normal" in2="BackgroundImageFix" result="effect1_dropShadow_451_502"/>
<feBlend mode="normal" in="SourceGraphic" in2="effect1_dropShadow_451_502" result="shape"/>
</filter>
<filter id="filter7_d_451_502" x="169.146" y="319.742" width="251.835" height="88.5571" filterUnits="userSpaceOnUse" color-interpolation-filters="sRGB">
<feFlood flood-opacity="0" result="BackgroundImageFix"/>
<feColorMatrix in="SourceAlpha" type="matrix" values="0 0 0 0 0 0 0 0 0 0 0 0 0 0 0 0 0 0 127 0" result="hardAlpha"/>
<feOffset/>
<feGaussianBlur stdDeviation="10"/>
<feComposite in2="hardAlpha" operator="out"/>
<feColorMatrix type="matrix" values="0 0 0 0 0.916667 0 0 0 0 0.627351 0 0 0 0 0.210069 0 0 0 1 0"/>
<feBlend mode="normal" in2="BackgroundImageFix" result="effect1_dropShadow_451_502"/>
<feBlend mode="normal" in="SourceGraphic" in2="effect1_dropShadow_451_502" result="shape"/>
</filter>
<filter id="filter8_d_451_502" x="399.863" y="282.702" width="713.35" height="112.744" filterUnits="userSpaceOnUse" color-interpolation-filters="sRGB">
<feFlood flood-opacity="0" result="BackgroundImageFix"/>
<feColorMatrix in="SourceAlpha" type="matrix" values="0 0 0 0 0 0 0 0 0 0 0 0 0 0 0 0 0 0 127 0" result="hardAlpha"/>
<feOffset/>
<feGaussianBlur stdDeviation="10"/>
<feComposite in2="hardAlpha" operator="out"/>
<feColorMatrix type="matrix" values="0 0 0 0 0.916667 0 0 0 0 0.627351 0 0 0 0 0.210069 0 0 0 1 0"/>
<feBlend mode="normal" in2="BackgroundImageFix" result="effect1_dropShadow_451_502"/>
<feBlend mode="normal" in="SourceGraphic" in2="effect1_dropShadow_451_502" result="shape"/>
</filter>
<filter id="filter9_d_451_502" x="1078.47" y="106.05" width="79.5264" height="79.5269" filterUnits="userSpaceOnUse" color-interpolation-filters="sRGB">
<feFlood flood-opacity="0" result="BackgroundImageFix"/>
<feColorMatrix in="SourceAlpha" type="matrix" values="0 0 0 0 0 0 0 0 0 0 0 0 0 0 0 0 0 0 127 0" result="hardAlpha"/>
<feOffset/>
<feGaussianBlur stdDeviation="10"/>
<feComposite in2="hardAlpha" operator="out"/>
<feColorMatrix type="matrix" values="0 0 0 0 0.916667 0 0 0 0 0.627351 0 0 0 0 0.210069 0 0 0 1 0"/>
<feBlend mode="normal" in2="BackgroundImageFix" result="effect1_dropShadow_451_502"/>
<feBlend mode="normal" in="SourceGraphic" in2="effect1_dropShadow_451_502" result="shape"/>
</filter>
<filter id="filter10_d_451_502" x="158.518" y="145.994" width="251.835" height="88.5573" filterUnits="userSpaceOnUse" color-interpolation-filters="sRGB">
<feFlood flood-opacity="0" result="BackgroundImageFix"/>
<feColorMatrix in="SourceAlpha" type="matrix" values="0 0 0 0 0 0 0 0 0 0 0 0 0 0 0 0 0 0 127 0" result="hardAlpha"/>
<feOffset/>
<feGaussianBlur stdDeviation="10"/>
<feComposite in2="hardAlpha" operator="out"/>
<feColorMatrix type="matrix" values="0 0 0 0 0.916667 0 0 0 0 0.627351 0 0 0 0 0.210069 0 0 0 1 0"/>
<feBlend mode="normal" in2="BackgroundImageFix" result="effect1_dropShadow_451_502"/>
<feBlend mode="normal" in="SourceGraphic" in2="effect1_dropShadow_451_502" result="shape"/>
</filter>
<filter id="filter11_d_451_502" x="389.235" y="108.954" width="713.351" height="112.744" filterUnits="userSpaceOnUse" color-interpolation-filters="sRGB">
<feFlood flood-opacity="0" result="BackgroundImageFix"/>
<feColorMatrix in="SourceAlpha" type="matrix" values="0 0 0 0 0 0 0 0 0 0 0 0 0 0 0 0 0 0 127 0" result="hardAlpha"/>
<feOffset/>
<feGaussianBlur stdDeviation="10"/>
<feComposite in2="hardAlpha" operator="out"/>
<feColorMatrix type="matrix" values="0 0 0 0 0.916667 0 0 0 0 0.627351 0 0 0 0 0.210069 0 0 0 1 0"/>
<feBlend mode="normal" in2="BackgroundImageFix" result="effect1_dropShadow_451_502"/>
<feBlend mode="normal" in="SourceGraphic" in2="effect1_dropShadow_451_502" result="shape"/>
</filter>
</defs>
</svg>
